<svg xmlns="http://www.w3.org/2000/svg" version="1.1" xmlns:xlink="http://www.w3.org/1999/xlink" xmlns:svgjs="http://svgjs.com/svgjs" width="1283" height="720" preserveAspectRatio="none" viewBox="0 0 1283 720"><g mask="url(&quot;#SvgjsMask1033&quot;)" fill="none"><rect width="1283" height="720" x="0" y="0" fill="rgba(13, 71, 161, 1)"></rect><path d="M0,479.003C84.697,454.7,142.98,385.207,219.668,341.811C302.492,294.943,427.859,300.008,468.435,213.927C508.933,128.012,427.954,34.232,408.472,-58.729C390.55,-144.248,406.868,-237.873,358.5,-310.642C307.458,-387.434,226.386,-443.882,137.118,-466.981C49.16,-489.741,-39.62,-456.823,-128.191,-436.58C-222.669,-414.987,-326.091,-409.883,-397.825,-344.718C-472.854,-276.56,-517.979,-176.648,-525.592,-75.569C-532.985,22.58,-472.325,107.86,-438.887,200.433C-401.981,302.606,-410.719,438.159,-319,496.374C-227.232,554.621,-104.476,508.981,0,479.003" fill="#092e69"></path><path d="M1283 1148.359C1400.288 1170.214 1512.157 1295.308 1620.186 1244.672 1724.175 1195.93 1697.6309999999999 1035.608 1745.887 931.393 1794.496 826.417 1934.3319999999999 742.415 1904.512 630.64 1873.681 515.077 1711.971 501.31100000000004 1613.166 433.91 1543.239 386.209 1488.922 318.969 1408.574 292.333 1326.399 265.092 1240.657 275.223 1154.335 281.807 1045.987 290.071 926.13 270.093 839.5350000000001 335.736 748.802 404.515 694.177 520.8530000000001 688.95 634.588 683.878 744.952 751.082 842.929 811.99 935.1030000000001 865.491 1016.067 929.529 1092.425 1017.934 1132.451 1100.2350000000001 1169.714 1194.185 1131.81 1283 1148.359" fill="#1260d9"></path></g><defs><mask id="SvgjsMask1033"><rect width="1283" height="720" fill="#ffffff"></rect></mask></defs></svg>