<?xml version="1.0" encoding="utf-8"?>
<!-- Generator: Adobe Illustrator 23.0.1, SVG Export Plug-In . SVG Version: 6.00 Build 0)  -->
<svg version="1.1" id="Capa_1" xmlns="http://www.w3.org/2000/svg" xmlns:xlink="http://www.w3.org/1999/xlink" x="0px" y="0px"
	 viewBox="0 0 612 675.12" style="enable-background:new 0 0 612 675.12;" xml:space="preserve">
<style type="text/css">
	.st0{fill:#393A39;}
	.st1{fill:#303330;}
	.st2{fill:#FFFFFF;}
	.st3{fill:#6D1717;}
	.st4{fill:url(#SVGID_1_);}
	.st5{fill:url(#SVGID_2_);}
	.st6{fill:url(#SVGID_3_);}
	.st7{fill:url(#SVGID_4_);}
	.st8{fill:url(#SVGID_5_);}
</style>
<g>
	<path class="st0" d="M374.73,506.26v28.35c0,16.01-3.04,31-9.11,44.99c-6.08,13.98-14.37,26.23-24.88,36.74
		s-22.81,18.8-36.89,24.88s-29.03,9.11-44.84,9.11c-16.01,0-31-3.04-44.99-9.11c-13.98-6.07-26.23-14.36-36.74-24.88
		c-10.51-10.51-18.8-22.76-24.88-36.74c-6.07-13.98-9.11-28.97-9.11-44.99c0-15.81,3.04-30.76,9.11-44.84
		c6.08-14.08,14.37-26.37,24.88-36.89c10.51-10.51,22.75-18.8,36.74-24.88c13.98-6.08,28.98-9.11,44.99-9.11h31.82l57.28,57.28
		h-89.1c-8.1,0-15.72,1.55-22.85,4.63c-7.14,3.09-13.31,7.23-18.52,12.44s-9.36,11.38-12.44,18.51c-3.09,7.14-4.63,14.75-4.63,22.86
		s1.54,15.72,4.63,22.86c3.08,7.14,7.23,13.31,12.44,18.51c5.21,5.21,11.38,9.36,18.52,12.44c7.13,3.09,14.75,4.63,22.85,4.63
		c10.99,0,20.97-2.75,29.94-8.24c8.97-5.5,15.96-12.59,20.97-21.26H247.9c0,0,14.1-23.21,13.87-38.9
		c-0.16-10.78-9.73-18.38-9.73-18.38h122.69V506.26z"/>
	<path class="st0" d="M409.29,650.33c0,0,15.27-18.39,13.73-43.53c-0.48-7.89-9.72-14.33-9.72-14.33h91.9c4.05,0,7.57-1.4,10.56-4.2
		c2.99-2.79,4.48-6.22,4.48-10.27s-1.5-7.47-4.48-10.27c-2.99-2.79-6.51-4.2-10.56-4.2h-52.07c-9.84,0-19.09-1.88-27.77-5.64
		s-16.3-8.92-22.85-15.48c-6.56-6.55-11.72-14.22-15.48-23c-3.76-8.77-5.64-18.18-5.64-28.21c0-9.84,1.88-19.14,5.64-27.92
		c3.76-8.77,8.92-16.44,15.48-23c6.55-6.55,14.18-11.76,22.85-15.62c8.68-3.86,17.94-5.79,27.77-5.79h60.75v57.86h-60.75
		c-4.05,0-7.48,1.4-10.27,4.2c-2.8,2.8-4.2,6.22-4.2,10.27s1.4,7.57,4.2,10.56c2.79,2.99,6.22,4.48,10.27,4.48h52.07
		c10.03,0,19.43,1.88,28.21,5.64c8.77,3.76,16.44,8.92,23,15.48c6.55,6.56,11.72,14.18,15.48,22.86s5.64,17.94,5.64,27.77
		c0,10.03-1.88,19.43-5.64,28.21s-8.92,16.45-15.48,23c-6.56,6.56-14.22,11.72-23,15.48s-18.18,5.64-28.21,5.64h-95.91V650.33z"/>
	<path class="st1" d="M220.88,489.44c0,0,3.17,34.19,1.76,49c0,0,3.53,3.53,5.29-7.4c0,0,21.15-5.99,15.86,11.63
		c0,0-9.17,17.98-3.88,20.8c0,0,13.04-15.16,15.16-37.01c0,0,0-24.33-20.09-20.1C234.98,506.35,223.34,511.65,220.88,489.44z"/>
	<path class="st1" d="M382.86,577.22c0,0,3.13,33.77,1.74,48.4c0,0,3.48,3.48,5.22-7.31c0,0,20.89-5.92,15.67,11.49
		c0,0-9.05,17.76-3.83,20.54c0,0,12.88-14.97,14.97-36.56c0,0,0-24.03-19.85-19.85C396.78,593.92,385.29,599.15,382.86,577.22z"/>
	<polygon class="st2" points="82.88,415.78 80.85,415.78 82.86,415.93 	"/>
	<path class="st2" d="M86.05,416.16c0.03-0.1,0.07-0.25,0.11-0.37h-1.19l-0.02,0.29L86.05,416.16z"/>
	<polygon class="st1" points="86.65,392.37 89.77,392.6 90.13,387.6 81.81,387.01 81.45,392 84.57,392.23 82.88,415.78 
		84.97,415.78 	"/>
	<path class="st1" d="M80.17,415.74c-0.11-1.55-0.51-7.15-0.84-9.18c-0.34-2.1-1.83-7.81-2.17-9.09l3.22-0.82l-1.24-4.85l-8.09,2.07
		l1.24,4.85l2.88-0.74c0.48,1.55,2.12,6.86,2.45,8.87c0.31,1.86,0.46,6.74,0.51,8.75l-5.16-0.37c0.02,0.16,0.02,0.38,0.04,0.57h7.86
		L80.17,415.74z"/>
	<path class="st1" d="M90.32,408.22c0.74-1.9,3.43-6.75,4.23-8.17l2.66,1.31l2.22-4.49l-7.48-3.69l-2.22,4.49l2.98,1.47
		c-0.6,1.19-3.23,6.47-4,8.45c-0.67,1.72-1.97,6.21-2.54,8.2h2.08C88.78,413.54,89.72,409.76,90.32,408.22z"/>
	<path class="st0" d="M88.24,415.78c-0.04,0.16-0.09,0.38-0.13,0.52l5.69,0.41c0,0,3.87-0.04,2.56,4.7
		c-1.31,4.74,1.34,17.18,1.34,17.18l-8.02-0.58c0,0-3.85-0.28-2.61,4.97c0,0,6.81,39.81-1.08,50.85c0,0-3.13,7.69-2.15-46.32
		c0,0,1.4-10.46-6.71-9.76c0,0-5.8,0.05-5.4-5.64c0.39-5.38,1.5-13.04,1.25-16.34H7.78v51.57l54.96,0.13v157.17
		c0,14.18,11.5,25.68,25.68,25.68s25.68-11.5,25.68-25.68h0.33V467.48h26.63l51.69-51.69H88.24V415.78z"/>
	<g>
		<path class="st3" d="M325.43,402.41c0,0-70.41-75.05-199.19-113.96C126.23,288.45,174.84,417.74,325.43,402.41z"/>
		<path class="st3" d="M349.51,350.53c0,0-122.3-94.5-238.11-126.93c0,0,3.71,33.01,9.26,48.93
			C120.67,272.53,203.13,283.94,349.51,350.53z"/>
		<path class="st3" d="M419.96,300.5c0,0-184.41-126.93-293.73-163.06c0,0-16.37,40.99-14.82,69.49
			C111.41,206.92,211.47,218.96,419.96,300.5z"/>
		<path class="st3" d="M135.5,118.9c0,0,23.16-36.13,39.84-46.32c0,0,169.55,72.27,268.68,151.02
			C444.02,223.6,285.59,149.8,135.5,118.9z"/>
		<path class="st3" d="M197.57,57.48c0,0,66.71-59.15,178.81-18.32c0,0,60.22,21.37,97.28,98.27c0,0-61.15-12.04-138.05-42.62
			S197.57,57.48,197.57,57.48z"/>
		
			<linearGradient id="SVGID_1_" gradientUnits="userSpaceOnUse" x1="213.83" y1="313.6383" x2="318.52" y2="313.6383" gradientTransform="matrix(1 0 0 -1 0 678)">
			<stop  offset="0" style="stop-color:#99171C"/>
			<stop  offset="0.0445" style="stop-color:#97171C"/>
			<stop  offset="0.3256" style="stop-color:#85181C"/>
			<stop  offset="0.5872" style="stop-color:#78181A"/>
			<stop  offset="0.82" style="stop-color:#701818"/>
			<stop  offset="1" style="stop-color:#6D1717"/>
		</linearGradient>
		<path class="st4" d="M213.83,332.23c0,0,39.84,18.09,104.69,64.17C318.53,396.4,262.01,401.71,213.83,332.23z"/>
		
			<linearGradient id="SVGID_2_" gradientUnits="userSpaceOnUse" x1="184.19" y1="383.15" x2="318.54" y2="383.15" gradientTransform="matrix(1 0 0 -1 0 678)">
			<stop  offset="0" style="stop-color:#99171C"/>
			<stop  offset="0.0445" style="stop-color:#97171C"/>
			<stop  offset="0.3256" style="stop-color:#85181C"/>
			<stop  offset="0.5872" style="stop-color:#78181A"/>
			<stop  offset="0.82" style="stop-color:#701818"/>
			<stop  offset="1" style="stop-color:#6D1717"/>
		</linearGradient>
		<path class="st5" d="M184.19,257.47l6.49,26.58c0,0,98.21,30.57,127.86,48.18C318.53,332.23,210.13,265.16,184.19,257.47z"/>
		
			<linearGradient id="SVGID_3_" gradientUnits="userSpaceOnUse" x1="180.0338" y1="452.315" x2="382.45" y2="452.315" gradientTransform="matrix(1 0 0 -1 0 678)">
			<stop  offset="0" style="stop-color:#99171C"/>
			<stop  offset="0.0445" style="stop-color:#97171C"/>
			<stop  offset="0.3256" style="stop-color:#85181C"/>
			<stop  offset="0.5872" style="stop-color:#78181A"/>
			<stop  offset="0.82" style="stop-color:#701818"/>
			<stop  offset="1" style="stop-color:#6D1717"/>
		</linearGradient>
		<path class="st6" d="M188.82,171.02c0,0-11.12,23.32-8.34,46.87c0,0,105.62,18.91,201.97,62.46
			C382.45,280.34,237.92,192.33,188.82,171.02z"/>
		
			<linearGradient id="SVGID_4_" gradientUnits="userSpaceOnUse" x1="204.57" y1="523.195" x2="415.81" y2="523.195" gradientTransform="matrix(1 0 0 -1 0 678)">
			<stop  offset="0" style="stop-color:#99171C"/>
			<stop  offset="0.0445" style="stop-color:#97171C"/>
			<stop  offset="0.3256" style="stop-color:#85181C"/>
			<stop  offset="0.5872" style="stop-color:#78181A"/>
			<stop  offset="0.82" style="stop-color:#701818"/>
			<stop  offset="1" style="stop-color:#6D1717"/>
		</linearGradient>
		<path class="st7" d="M415.81,204.37c0,0-149.16-88.02-191.78-99.13c0,0-17.6,18.53-19.46,27.79
			C204.57,133.03,287.95,150.63,415.81,204.37z"/>
		
			<linearGradient id="SVGID_5_" gradientUnits="userSpaceOnUse" x1="256.45" y1="596.9051" x2="465.84" y2="596.9051" gradientTransform="matrix(1 0 0 -1 0 678)">
			<stop  offset="0" style="stop-color:#99171C"/>
			<stop  offset="0.0445" style="stop-color:#97171C"/>
			<stop  offset="0.3256" style="stop-color:#85181C"/>
			<stop  offset="0.5872" style="stop-color:#78181A"/>
			<stop  offset="0.82" style="stop-color:#701818"/>
			<stop  offset="1" style="stop-color:#6D1717"/>
		</linearGradient>
		<path class="st8" d="M256.45,63.54c0,0,48.18-29.83,71.34-29.74s55.59,1.95,138.05,94.59C465.84,128.4,295.33,68.67,256.45,63.54z
			"/>
	</g>
	<g>
		<g>
			<g>
				<path d="M563.79,145.62c-1.29,0-2.58,0-3.87,0c-0.14-0.02-0.28-0.05-0.42-0.07c-1.82-0.22-3.66-0.35-5.46-0.67
					c-5.08-0.9-9.81-2.74-14.2-5.43c-6.13-3.75-11.01-8.73-14.63-14.94c-3.14-5.39-4.98-11.22-5.55-17.43
					c-0.22-2.43-0.22-4.86-0.02-7.3c0.2-2.42,0.59-4.8,1.2-7.15c1.62-6.22,4.49-11.78,8.64-16.69c3.7-4.38,8.1-7.88,13.21-10.48
					c5.3-2.69,10.92-4.19,16.86-4.52c3.72-0.2,7.4,0.06,11.03,0.83c6.92,1.47,13.13,4.43,18.51,9.02
					c8.93,7.63,13.95,17.31,15.01,29.03c0.04,0.47,0.09,0.95,0.14,1.42c0,1.34,0,2.68,0,4.01c-0.02,0.13-0.06,0.26-0.07,0.38
					c-0.11,2.36-0.45,4.7-0.97,7c-1.53,6.67-4.49,12.64-8.9,17.87c-5.17,6.13-11.57,10.46-19.18,12.99
					c-3.19,1.06-6.46,1.72-9.82,1.97C564.79,145.52,564.29,145.57,563.79,145.62z M528.09,103.23
					c-0.03,18.61,15.12,33.77,33.76,33.79c18.61,0.01,33.76-15.1,33.76-33.74c0-18.67-15.06-33.75-33.75-33.78
					C543.26,69.46,528.13,84.59,528.09,103.23z"/>
				<path d="M554.74,124.45c-3.86,0-7.64,0-11.45,0c0-14.78,0-29.54,0-44.35c0.12,0,0.23,0,0.35,0c6.01,0,12.02-0.03,18.03,0.02
					c3.04,0.02,6.05,0.34,8.93,1.41c1.99,0.74,3.75,1.83,5.03,3.58c1,1.37,1.56,2.91,1.81,4.58c0.34,2.28,0.32,4.55-0.34,6.77
					c-0.84,2.86-2.69,4.87-5.31,6.21c-0.81,0.41-1.67,0.73-2.49,1.08c0.35,0.13,0.75,0.26,1.13,0.42c1.89,0.81,3.26,2.2,4.42,3.85
					c1.01,1.44,1.8,3.01,2.57,4.58c1.89,3.82,3.8,7.64,5.69,11.47c0.06,0.12,0.11,0.23,0.18,0.4c-0.16,0.01-0.28,0.02-0.4,0.02
					c-3.8,0-7.6,0-11.4,0.01c-0.28,0-0.42-0.09-0.54-0.34c-1.84-3.74-3.66-7.49-5.54-11.22c-0.45-0.9-1.02-1.75-1.61-2.57
					c-1.09-1.53-2.64-2.39-4.49-2.55c-1.5-0.14-3.03-0.1-4.59-0.14C554.74,113.28,554.74,118.85,554.74,124.45z M554.75,99.8
					c0.11,0,0.18,0.01,0.24,0.01c1.61,0,3.23,0.03,4.84-0.02c0.82-0.02,1.64-0.12,2.45-0.28c1.78-0.36,3.12-1.3,3.65-3.13
					c0.43-1.52,0.45-3.07,0.01-4.59c-0.39-1.37-1.23-2.38-2.61-2.81c-0.76-0.24-1.55-0.45-2.33-0.48c-2-0.09-4.01-0.07-6.02-0.09
					c-0.07,0-0.14,0.01-0.22,0.02C554.75,92.22,554.75,95.99,554.75,99.8z"/>
			</g>
		</g>
	</g>
</g>
</svg>
