<?xml version="1.0" encoding="UTF-8" ?>
<!DOCTYPE svg PUBLIC "-//W3C//DTD SVG 1.1//EN" "http://www.w3.org/Graphics/SVG/1.1/DTD/svg11.dtd">
<svg width="1000pt" height="200pt" viewBox="0 0 1000 200" version="1.1" xmlns="http://www.w3.org/2000/svg">
<g id="#0076bcff">
<path fill="#0076bc" opacity="1.00" d=" M 147.80 16.09 C 149.51 16.34 151.22 16.63 152.92 17.03 C 154.24 17.44 155.57 17.82 156.89 18.25 C 157.94 18.46 158.98 18.67 160.03 18.88 C 164.48 20.06 168.92 21.34 173.51 21.87 C 173.47 22.94 173.43 24.00 173.37 25.07 C 171.82 29.93 171.18 35.02 169.95 39.97 C 168.22 47.61 166.63 55.29 164.93 62.94 C 164.56 64.58 164.23 66.23 163.80 67.86 C 162.42 73.85 161.36 79.92 159.84 85.88 C 158.54 91.91 157.38 97.97 155.86 103.95 C 155.60 105.31 155.36 106.66 155.10 108.02 C 152.94 117.31 151.05 126.66 148.93 135.97 C 147.02 145.00 144.92 153.99 143.13 163.05 C 141.83 167.66 141.15 172.42 139.86 177.03 C 139.59 178.90 139.36 180.78 139.16 182.67 C 137.41 182.73 135.67 182.53 134.03 181.91 C 132.99 181.66 131.96 181.42 130.92 181.19 C 126.67 179.88 122.25 179.25 118.04 177.82 C 116.49 177.60 114.94 177.40 113.38 177.22 C 113.28 172.05 115.13 167.13 116.11 162.12 C 117.63 154.40 119.46 146.75 121.10 139.07 C 121.43 137.40 121.76 135.73 122.20 134.09 C 122.41 133.03 122.61 131.96 122.82 130.90 C 123.64 127.63 124.27 124.32 125.13 121.07 C 125.37 119.69 125.60 118.31 125.83 116.94 C 127.66 109.29 129.26 101.60 130.93 93.92 C 132.31 87.93 133.57 81.91 134.86 75.89 C 136.60 68.25 138.26 60.59 139.93 52.94 C 141.93 43.63 144.02 34.34 146.06 25.04 C 146.71 22.07 147.39 19.10 147.80 16.09 Z" />
<path fill="#0076bc" opacity="1.00" d=" M 821.36 30.37 C 827.62 27.00 834.16 24.16 840.55 21.05 C 840.60 24.69 840.62 28.34 840.46 31.98 C 833.93 34.35 827.68 37.40 821.20 39.86 C 821.24 36.70 821.01 33.52 821.36 30.37 Z" />
<path fill="#0076bc" opacity="1.00" d=" M 705.20 24.27 C 710.28 21.79 717.60 26.10 716.62 32.05 C 716.11 38.93 706.01 40.88 701.97 35.90 C 698.60 32.29 700.37 25.60 705.20 24.27 Z" />
<path fill="#0076bc" opacity="1.00" d=" M 413.37 28.62 C 417.81 28.64 422.25 28.65 426.69 28.60 C 426.83 35.46 426.70 42.32 426.77 49.17 C 431.54 44.60 438.17 41.34 444.89 43.14 C 452.73 44.56 458.23 51.40 460.29 58.77 C 461.13 66.21 461.35 74.43 456.81 80.82 C 452.48 87.63 443.63 90.94 435.89 88.71 C 432.25 87.88 429.48 85.24 426.74 82.89 C 426.73 84.83 426.75 86.76 426.75 88.70 C 422.27 88.68 417.79 88.69 413.32 88.69 C 413.35 68.66 413.25 48.64 413.37 28.62 M 427.48 69.91 C 428.31 73.66 431.61 76.04 434.95 77.46 C 437.73 77.29 440.85 77.12 442.99 75.07 C 446.96 71.92 447.44 66.19 446.19 61.61 C 444.68 56.65 438.99 53.62 434.05 55.28 C 428.13 57.03 425.51 64.40 427.48 69.91 Z" />
<path fill="#0076bc" opacity="1.00" d=" M 308.72 43.00 C 308.76 39.20 308.42 35.35 309.20 31.60 C 317.15 31.79 325.11 31.62 333.07 31.68 C 338.14 31.86 343.45 33.20 347.26 36.73 C 353.89 42.48 354.56 53.50 349.26 60.33 C 347.08 63.26 343.65 64.88 340.29 66.05 C 344.36 73.72 349.05 81.03 353.16 88.68 C 347.99 88.69 342.83 88.68 337.66 88.68 C 333.87 81.54 329.78 74.56 326.07 67.38 C 324.84 67.31 323.62 67.25 322.41 67.20 C 322.43 74.36 322.42 81.53 322.42 88.70 C 317.85 88.67 313.28 88.71 308.71 88.64 C 308.73 73.43 308.71 58.21 308.72 43.00 M 322.42 43.28 C 322.42 47.96 322.41 52.64 322.43 57.32 C 326.29 57.20 330.21 57.67 334.03 57.00 C 339.97 55.72 340.47 45.85 334.79 43.87 C 330.75 42.88 326.53 43.41 322.42 43.28 Z" />
<path fill="#0076bc" opacity="1.00" d=" M 555.14 32.36 C 559.85 32.33 564.56 32.27 569.28 32.45 C 569.23 36.13 569.23 39.81 569.27 43.48 C 572.24 43.47 575.22 43.47 578.20 43.52 C 578.18 47.28 578.18 51.04 578.21 54.80 C 575.22 54.91 572.24 54.92 569.26 54.96 C 569.41 62.11 568.84 69.29 569.63 76.42 C 572.29 76.71 574.97 76.76 577.66 76.69 C 578.48 80.60 578.16 84.61 578.20 88.58 C 572.38 88.65 565.94 89.51 560.79 86.16 C 556.82 83.58 555.21 78.64 555.20 74.11 C 555.12 67.72 555.22 61.32 555.18 54.93 C 553.34 54.91 551.51 54.89 549.69 54.86 C 549.71 51.07 549.71 47.28 549.70 43.50 C 551.52 43.48 553.35 43.47 555.18 43.46 C 555.19 39.76 555.19 36.06 555.14 32.36 Z" />
<path fill="#0076bc" opacity="1.00" d=" M 676.48 71.03 C 676.53 57.91 676.40 44.79 676.53 31.67 C 681.12 31.69 685.71 31.68 690.30 31.69 C 690.35 44.79 690.32 57.89 690.33 70.99 C 690.45 77.71 687.13 84.93 680.60 87.55 C 672.19 91.03 660.73 89.62 655.18 81.81 C 652.54 78.30 652.06 73.82 651.53 69.60 C 656.09 69.55 660.66 69.59 665.24 69.56 C 665.47 72.73 667.00 77.25 670.99 76.76 C 674.21 77.34 676.76 74.02 676.48 71.03 Z" />
<path fill="#0076bc" opacity="1.00" d=" M 365.33 49.32 C 368.89 45.50 373.99 43.84 378.95 42.76 C 380.99 42.75 383.04 42.74 385.09 42.78 C 386.71 43.18 388.35 43.53 390.00 43.84 C 395.81 45.76 401.06 49.74 403.53 55.47 C 407.36 64.21 406.31 75.51 399.47 82.51 C 390.35 91.72 373.57 91.72 364.56 82.34 C 362.34 79.98 360.96 77.02 359.72 74.06 C 357.33 65.61 358.69 55.53 365.33 49.32 M 374.79 58.50 C 372.08 62.99 372.08 69.00 374.72 73.52 C 376.97 77.12 381.99 78.50 385.79 76.60 C 388.63 75.51 390.02 72.62 391.37 70.10 C 391.51 67.37 391.51 64.64 391.37 61.91 C 389.98 59.39 388.58 56.50 385.68 55.46 C 381.94 53.71 377.11 55.13 374.79 58.50 Z" />
<path fill="#0076bc" opacity="1.00" d=" M 472.97 48.06 C 476.29 45.02 480.73 43.88 484.96 42.75 C 488.72 42.51 492.46 42.99 496.14 43.77 C 501.59 45.82 506.63 49.53 508.89 55.06 C 511.09 59.49 510.90 64.55 510.81 69.36 C 500.23 69.52 489.64 69.26 479.06 69.50 C 479.75 73.31 481.94 77.51 486.24 77.94 C 490.02 79.15 493.22 76.30 495.64 73.77 C 500.41 73.48 505.20 73.73 509.99 73.69 C 508.38 79.46 504.40 84.55 498.90 87.06 C 489.25 91.67 476.03 89.46 469.72 80.41 C 463.19 70.73 464.07 56.00 472.97 48.06 M 479.19 61.53 C 485.08 61.67 490.98 61.62 496.88 61.57 C 496.70 55.85 490.13 52.30 485.04 54.42 C 481.76 55.33 480.20 58.58 479.19 61.53 Z" />
<path fill="#0076bc" opacity="1.00" d=" M 540.83 43.64 C 542.69 43.44 544.56 43.25 546.43 43.05 C 546.44 47.86 546.43 52.66 546.44 57.47 C 542.37 57.68 537.33 56.97 534.28 60.31 C 531.96 62.55 532.48 66.01 531.76 68.88 C 532.52 75.49 531.73 82.08 531.76 88.70 C 527.28 88.68 522.81 88.69 518.34 88.68 C 518.34 73.61 518.36 58.54 518.33 43.47 C 522.96 43.98 528.13 42.35 532.41 44.44 C 531.94 46.37 531.74 48.34 531.67 50.32 C 534.66 48.00 537.41 45.34 540.83 43.64 Z" />
<path fill="#0076bc" opacity="1.00" d=" M 598.68 43.88 C 606.08 41.60 614.52 42.74 620.90 47.17 C 626.87 51.38 630.14 58.79 629.73 66.02 C 630.26 74.23 625.81 82.58 618.48 86.41 C 609.90 90.95 598.44 90.39 590.82 84.16 C 582.97 77.83 581.20 66.22 584.47 57.05 C 586.73 50.69 592.27 45.82 598.68 43.88 M 603.23 55.31 C 599.64 56.58 597.16 60.25 597.27 64.05 C 597.20 67.32 596.91 71.00 599.08 73.73 C 601.77 77.68 607.77 78.69 611.54 75.70 C 616.10 72.46 616.62 65.92 615.05 60.97 C 613.49 56.31 607.86 53.29 603.23 55.31 Z" />
<path fill="#0076bc" opacity="1.00" d=" M 701.54 43.50 C 706.16 43.46 710.77 43.45 715.39 43.51 C 715.36 58.55 715.36 73.59 715.39 88.63 C 710.78 88.72 706.16 88.70 701.55 88.66 C 701.56 73.60 701.58 58.55 701.54 43.50 Z" />
<path fill="#0076bc" opacity="1.00" d=" M 739.39 48.88 C 743.85 43.51 751.62 41.61 758.18 43.75 C 762.34 44.69 765.37 47.88 767.95 51.07 C 771.36 46.56 776.36 43.60 781.97 42.76 C 782.70 42.77 784.16 42.79 784.89 42.79 C 788.48 43.57 792.28 44.30 795.15 46.80 C 799.43 50.13 801.45 55.66 801.48 60.97 C 801.48 70.21 801.47 79.45 801.47 88.70 C 796.93 88.68 792.39 88.69 787.85 88.68 C 787.83 80.78 787.86 72.87 787.85 64.96 C 787.92 61.83 787.19 58.30 784.45 56.42 C 779.69 53.21 772.36 55.23 770.57 60.89 C 770.18 70.15 770.46 79.42 770.40 88.69 C 765.83 88.68 761.26 88.70 756.70 88.66 C 756.70 80.74 756.71 72.83 756.72 64.92 C 756.70 62.14 756.24 59.04 754.10 57.06 C 749.48 52.81 740.11 55.01 739.53 61.82 C 739.09 70.75 739.46 79.70 739.36 88.64 C 734.75 88.71 730.14 88.70 725.54 88.66 C 725.56 73.60 725.56 58.55 725.54 43.49 C 730.13 43.46 734.73 43.46 739.33 43.50 C 739.34 45.29 739.36 47.09 739.39 48.88 Z" />
<path fill="#0076bc" opacity="1.00" d=" M 816.63 47.45 C 819.86 44.80 824.00 43.81 827.94 42.74 C 835.94 42.11 844.85 44.55 849.68 51.39 C 853.60 56.51 854.23 63.21 853.64 69.43 C 843.12 69.41 832.60 69.34 822.08 69.47 C 822.64 71.56 823.03 73.83 824.56 75.48 C 826.10 77.46 828.73 77.71 830.98 78.41 C 833.94 77.85 836.59 76.37 838.19 73.73 C 843.09 73.61 848.01 73.66 852.92 73.69 C 851.36 79.16 847.72 84.05 842.60 86.65 C 832.44 92.09 817.86 89.40 811.80 79.13 C 806.08 69.24 807.42 54.82 816.63 47.45 M 822.14 61.53 C 828.03 61.66 833.93 61.62 839.83 61.56 C 839.56 55.91 833.19 52.33 828.08 54.38 C 824.74 55.25 823.13 58.53 822.14 61.53 Z" />
<path fill="#0076bc" opacity="1.00" d=" M 874.73 48.99 C 879.32 44.75 885.69 41.71 892.04 43.21 C 897.16 43.96 901.77 47.34 904.02 52.01 C 905.73 55.72 906.25 59.88 906.25 63.94 C 906.21 72.16 906.21 80.38 906.24 88.60 C 901.64 88.73 897.04 88.68 892.45 88.68 C 892.44 80.79 892.46 72.90 892.46 65.01 C 892.45 62.22 891.96 59.19 890.05 57.03 C 886.89 53.75 881.05 53.60 877.71 56.67 C 875.17 59.06 874.96 62.77 874.73 66.02 C 874.69 73.58 874.76 81.14 874.73 88.70 C 870.25 88.68 865.77 88.69 861.30 88.69 C 861.29 73.62 861.32 58.54 861.29 43.47 C 865.77 43.47 870.25 43.47 874.74 43.46 C 874.73 45.30 874.71 47.14 874.73 48.99 Z" />
<path fill="#0076bc" opacity="1.00" d=" M 922.03 47.02 C 925.17 44.59 929.11 43.74 932.87 42.74 C 940.43 42.20 948.72 44.30 953.68 50.39 C 958.20 55.57 959.09 62.76 958.53 69.37 C 947.97 69.49 937.41 69.30 926.86 69.47 C 927.50 72.95 929.21 76.96 933.07 77.72 C 936.91 79.21 941.04 77.04 943.09 73.70 C 947.98 73.63 952.86 73.65 957.76 73.70 C 955.92 80.05 951.12 85.54 944.87 87.81 C 935.06 91.52 922.31 88.69 916.73 79.32 C 910.79 69.25 912.16 54.20 922.03 47.02 M 926.99 61.55 C 932.92 61.64 938.85 61.64 944.78 61.55 C 944.25 55.97 938.25 52.42 933.06 54.32 C 929.62 55.11 927.89 58.44 926.99 61.55 Z" />
<path fill="#0076bc" opacity="1.00" d=" M 963.47 43.48 C 975.07 43.48 986.68 43.44 998.29 43.50 C 998.27 47.06 998.27 50.63 998.30 54.20 C 991.88 61.97 985.24 69.56 978.89 77.40 C 985.43 77.54 991.97 77.41 998.52 77.48 C 998.48 81.21 998.49 84.94 998.50 88.67 C 986.83 88.70 975.15 88.69 963.48 88.68 C 963.48 84.97 963.46 81.27 963.51 77.57 C 969.65 69.91 976.13 62.52 982.12 54.74 C 975.90 54.64 969.69 54.73 963.48 54.69 C 963.48 50.95 963.48 47.22 963.47 43.48 Z" />
</g>
<g id="#eed52bff">
<path fill="#eed52b" opacity="1.00" d=" M 202.39 44.08 C 208.53 37.38 214.91 30.87 220.97 24.09 C 238.90 42.92 256.82 61.75 275.02 80.32 L 274.39 80.89 C 267.87 87.28 261.64 93.95 255.47 100.67 L 254.97 100.28 C 237.53 81.99 220.03 63.70 202.54 45.44 C 202.51 45.10 202.43 44.42 202.39 44.08 Z" />
</g>
<g id="#e34b21ff">
<path fill="#e34b21" opacity="1.00" d=" M 0.00 100.06 C 23.18 74.94 47.20 50.61 70.38 25.49 C 76.71 31.86 82.59 38.66 88.93 45.04 C 71.39 63.44 53.99 81.99 36.46 100.40 C 30.19 107.17 23.72 113.74 17.34 120.41 C 11.44 114.42 5.62 108.34 0.00 102.08 L 0.00 100.06 Z" />
</g>
<g id="#efda4dff">
<path fill="#efda4d" opacity="1.00" d=" M 255.47 100.67 C 261.64 93.95 267.87 87.28 274.39 80.89 L 275.54 80.25 C 278.93 84.28 282.67 87.99 286.16 91.92 C 288.70 94.44 290.84 97.51 294.07 99.23 C 289.07 105.35 283.06 110.69 277.97 116.80 C 265.65 128.85 254.13 141.71 242.20 154.16 C 235.60 161.65 228.17 168.38 221.82 176.09 C 219.33 174.68 217.63 172.33 215.71 170.28 C 211.94 166.05 207.92 162.04 204.00 157.95 C 203.14 157.26 202.98 155.81 203.99 155.17 C 221.25 137.10 238.17 118.70 255.47 100.67 Z" />
</g>
<g id="#f06426ff">
<path fill="#f06426" opacity="1.00" d=" M 17.34 120.41 C 23.72 113.74 30.19 107.17 36.46 100.40 C 53.40 117.83 70.06 135.54 86.98 153.00 C 87.99 154.01 89.71 155.56 88.07 156.89 C 82.45 163.07 76.72 169.16 71.05 175.30 C 70.80 175.33 70.30 175.41 70.05 175.44 C 52.58 157.00 34.95 138.72 17.34 120.41 Z" />
</g>
<g id="#fefefeff">
<path fill="#fefefe" opacity="1.00" d=" M 541.26 125.44 C 544.06 125.52 546.86 125.51 549.66 125.49 C 549.81 137.90 549.64 150.31 549.75 162.72 C 546.76 162.74 543.77 162.76 540.79 162.67 C 541.10 150.27 540.23 137.80 541.26 125.44 Z" />
<path fill="#fefefe" opacity="1.00" d=" M 556.22 125.47 C 559.04 125.51 561.85 125.51 564.67 125.46 C 564.85 137.89 564.67 150.31 564.77 162.73 C 561.88 162.74 558.99 162.74 556.11 162.72 C 556.23 150.31 556.02 137.88 556.22 125.47 Z" />
<path fill="#fefefe" opacity="1.00" d=" M 963.52 125.49 C 966.31 125.51 969.11 125.52 971.92 125.44 C 972.10 137.88 971.95 150.32 972.00 162.76 C 969.13 162.73 966.26 162.74 963.41 162.72 C 963.45 161.83 963.55 160.07 963.60 159.18 C 961.00 162.34 956.93 163.51 952.97 162.92 C 948.65 163.00 945.66 159.39 943.51 156.10 C 941.66 150.63 941.49 143.93 945.18 139.17 C 946.73 136.88 949.37 135.80 951.75 134.60 C 956.08 133.99 960.60 135.17 963.57 138.55 C 963.41 134.20 963.47 129.84 963.52 125.49 M 951.26 147.95 C 950.40 151.95 953.67 156.53 958.01 155.67 C 962.62 155.55 964.59 149.67 962.96 145.92 C 962.15 143.24 959.30 142.32 956.91 141.59 C 954.16 142.65 950.99 144.54 951.26 147.95 Z" />
<path fill="#fefefe" opacity="1.00" d=" M 689.55 125.51 C 692.44 125.51 695.34 125.51 698.24 125.46 C 698.27 129.83 698.29 134.21 698.21 138.58 C 699.86 136.98 701.79 135.72 703.80 134.62 C 705.92 134.58 708.04 134.57 710.18 134.62 C 721.88 138.43 722.67 156.62 712.24 162.37 C 708.79 163.14 705.22 163.15 701.78 162.36 C 700.60 161.32 699.44 160.26 698.29 159.19 C 698.28 160.09 698.25 161.88 698.23 162.77 C 695.32 162.73 692.40 162.73 689.50 162.72 C 689.56 150.31 689.47 137.91 689.55 125.51 M 700.41 143.53 C 696.33 146.88 697.97 155.54 703.81 155.69 C 708.06 156.42 711.37 151.99 710.66 148.03 C 710.70 144.32 707.21 142.16 703.95 141.60 C 702.75 142.21 701.50 142.74 700.41 143.53 Z" />
<path fill="#fefefe" opacity="1.00" d=" M 334.35 127.49 C 339.92 127.62 345.51 127.31 351.08 127.77 C 352.68 128.21 354.31 128.57 355.94 128.98 C 360.93 131.32 364.90 135.70 366.08 141.18 C 366.41 143.52 366.48 145.89 366.30 148.25 C 365.82 149.80 365.41 151.38 365.00 152.95 C 362.74 157.37 358.72 160.53 354.10 162.21 C 347.54 163.16 340.90 162.58 334.30 162.74 C 334.36 150.99 334.28 139.24 334.35 127.49 M 342.97 135.23 C 342.97 141.95 342.97 148.67 342.97 155.40 C 346.98 155.41 351.63 155.92 354.77 152.84 C 358.63 148.55 358.60 140.70 353.93 136.99 C 350.85 134.48 346.63 135.42 342.97 135.23 Z" />
<path fill="#fefefe" opacity="1.00" d=" M 734.52 127.53 C 742.25 127.50 749.98 127.54 757.72 127.51 C 757.73 129.85 757.76 132.19 757.81 134.53 C 752.99 134.58 748.19 134.53 743.38 134.57 C 743.41 136.97 743.42 139.37 743.41 141.78 C 747.00 141.99 750.59 142.20 754.19 142.18 C 754.18 144.35 754.17 146.52 754.19 148.69 C 750.60 148.74 747.01 148.73 743.43 148.71 C 743.42 153.38 743.41 158.04 743.45 162.71 C 740.45 162.74 737.47 162.75 734.48 162.71 C 734.55 150.98 734.48 139.25 734.52 127.53 Z" />
<path fill="#fefefe" opacity="1.00" d=" M 852.31 128.26 C 855.12 128.24 857.94 128.24 860.77 128.27 C 860.74 130.41 860.72 132.54 860.71 134.68 C 862.59 134.68 864.46 134.68 866.35 134.68 C 866.36 137.03 866.37 139.39 866.39 141.75 C 864.48 141.84 862.59 141.99 860.71 142.18 C 860.94 146.59 860.21 151.09 861.31 155.42 C 863.06 155.54 864.80 155.62 866.57 155.67 C 866.59 158.01 866.61 160.35 866.66 162.70 C 861.85 162.81 854.97 163.61 852.97 157.92 C 851.62 152.89 852.62 147.54 852.39 142.39 C 851.12 142.16 849.86 141.92 848.62 141.69 C 848.64 139.36 848.64 137.02 848.67 134.68 C 849.89 134.66 851.13 134.64 852.38 134.61 C 852.33 132.49 852.32 130.38 852.31 128.26 Z" />
<path fill="#fefefe" opacity="1.00" d=" M 882.24 162.74 C 882.31 150.99 882.21 139.24 882.30 127.49 C 889.45 127.53 896.62 127.56 903.78 127.47 C 904.09 129.80 904.20 132.14 904.23 134.49 C 899.77 134.60 895.32 134.54 890.87 134.55 C 890.87 136.96 890.86 139.37 890.87 141.78 C 894.72 141.78 898.58 141.78 902.44 141.79 C 902.40 143.94 902.39 146.09 902.38 148.24 C 898.54 148.21 894.70 148.25 890.87 148.19 C 890.82 150.88 890.75 153.60 891.28 156.26 C 895.55 155.66 899.90 155.70 904.19 156.30 C 904.15 158.42 904.15 160.54 904.17 162.66 C 896.86 162.82 889.55 162.70 882.24 162.74 Z" />
<path fill="#fefefe" opacity="1.00" d=" M 406.69 135.68 C 410.05 134.36 413.67 134.41 417.22 134.65 C 419.95 135.84 422.66 137.26 424.29 139.87 C 424.69 141.30 425.11 142.72 425.52 144.15 C 422.90 144.16 420.29 144.15 417.68 144.16 C 417.21 143.36 416.74 142.57 416.28 141.78 C 415.75 141.55 414.71 141.09 414.18 140.86 C 413.31 140.81 412.44 140.76 411.58 140.71 C 410.78 141.61 409.80 142.53 410.09 143.88 C 414.03 146.94 419.89 145.97 423.55 149.61 C 425.61 151.63 425.50 154.63 425.41 157.30 C 423.95 159.32 422.33 161.42 419.92 162.32 C 415.91 163.40 411.71 163.02 407.67 162.36 C 404.24 160.58 401.12 157.71 401.06 153.56 C 403.76 153.58 406.47 153.58 409.18 153.60 C 410.07 155.67 412.04 156.67 414.03 157.46 C 415.53 156.66 417.71 156.19 417.46 154.01 C 414.14 151.13 409.18 151.83 405.54 149.49 C 403.49 148.50 402.66 146.29 401.72 144.38 C 401.73 143.75 401.75 142.48 401.75 141.84 C 402.65 139.26 404.42 137.18 406.69 135.68 Z" />
<path fill="#fefefe" opacity="1.00" d=" M 473.90 139.02 C 476.43 136.78 479.32 134.71 482.80 134.38 C 482.78 137.42 482.75 140.47 482.77 143.51 C 479.94 143.80 476.11 143.42 474.68 146.50 C 473.06 151.74 474.13 157.33 473.88 162.73 C 471.03 162.74 468.20 162.74 465.36 162.75 C 465.41 153.39 465.32 144.03 465.41 134.67 C 468.11 134.70 470.80 134.63 473.51 134.69 C 473.85 136.11 473.98 137.55 473.90 139.02 Z" />
<path fill="#fefefe" opacity="1.00" d=" M 517.96 134.71 C 520.94 134.49 523.97 134.39 526.91 135.06 C 531.14 136.61 534.46 139.87 536.11 144.06 C 536.74 147.32 536.75 150.68 536.02 153.93 C 534.45 157.59 531.58 160.41 528.12 162.31 C 523.31 163.04 517.79 163.84 513.45 161.10 C 505.46 156.17 505.04 142.96 512.54 137.40 C 514.15 136.17 516.14 135.58 517.96 134.71 M 516.85 144.87 C 514.88 148.61 515.89 155.18 520.89 155.72 C 523.66 156.42 525.86 154.41 527.38 152.36 C 527.55 150.05 527.56 147.72 527.39 145.41 C 526.04 143.57 524.21 142.26 522.03 141.58 C 520.15 142.36 517.76 142.80 516.85 144.87 Z" />
<path fill="#fefefe" opacity="1.00" d=" M 576.60 136.30 C 580.10 134.25 584.23 134.40 588.14 134.69 C 592.67 136.14 596.40 139.36 598.32 143.74 C 598.84 147.49 599.01 151.36 597.83 155.01 C 596.21 158.22 593.49 160.65 590.34 162.33 C 586.19 163.15 581.91 163.21 577.77 162.33 C 574.26 160.52 571.45 157.66 570.04 153.94 C 569.30 150.96 569.55 147.88 569.67 144.85 C 571.11 141.42 573.03 137.89 576.60 136.30 M 582.72 142.13 C 577.95 143.39 577.21 149.79 579.46 153.45 C 581.81 157.22 588.42 156.27 589.49 151.89 C 591.63 147.50 588.13 140.36 582.72 142.13 Z" />
<path fill="#fefefe" opacity="1.00" d=" M 666.80 134.70 C 670.33 134.39 673.93 134.38 677.29 135.69 C 683.08 138.37 685.65 144.93 684.91 151.04 C 678.26 151.09 671.61 150.93 664.97 151.14 C 665.21 153.43 666.68 155.08 668.58 156.24 C 669.53 156.23 671.44 156.22 672.39 156.21 C 673.44 155.36 674.47 154.48 675.49 153.58 C 678.39 153.58 681.31 153.57 684.23 153.62 C 682.93 158.56 678.38 162.67 673.20 162.89 C 670.05 163.01 666.60 163.23 663.73 161.74 C 654.35 157.25 653.88 141.76 662.85 136.61 C 664.12 135.89 665.47 135.32 666.80 134.70 M 664.95 146.15 C 668.61 146.21 672.28 146.20 675.95 146.17 C 675.93 139.68 665.58 140.13 664.95 146.15 Z" />
<path fill="#fefefe" opacity="1.00" d=" M 762.39 134.68 C 765.33 134.69 768.28 134.68 771.23 134.70 C 771.25 136.15 771.28 137.61 771.33 139.07 C 773.64 136.73 776.38 134.74 779.76 134.35 C 779.77 137.41 779.74 140.47 779.75 143.52 C 776.76 143.62 773.54 143.81 771.48 146.29 C 771.11 151.75 771.32 157.22 771.30 162.69 C 768.30 162.75 765.31 162.74 762.33 162.72 C 762.41 153.37 762.31 144.03 762.39 134.68 Z" />
<path fill="#fefefe" opacity="1.00" d=" M 793.85 134.69 C 796.25 134.51 798.66 134.54 801.07 134.70 C 802.07 135.10 803.10 135.48 804.14 135.82 C 808.85 138.11 811.70 142.82 812.36 147.92 C 811.98 150.27 811.59 152.63 811.13 154.97 C 809.21 158.18 806.55 161.20 802.89 162.37 C 798.94 163.34 794.81 163.08 790.86 162.28 C 785.89 159.86 782.31 154.62 782.70 148.99 C 782.33 143.46 785.61 138.02 790.68 135.78 C 791.74 135.44 792.79 135.08 793.85 134.69 M 795.32 142.37 C 789.36 144.45 790.27 155.84 797.10 155.81 C 803.79 156.08 805.30 145.93 800.34 142.68 C 798.78 141.96 796.95 141.93 795.32 142.37 Z" />
<path fill="#fefefe" opacity="1.00" d=" M 909.59 134.69 C 912.53 134.68 915.47 134.69 918.42 134.69 C 918.45 135.57 918.51 137.32 918.55 138.20 C 920.01 137.06 921.52 135.98 923.08 134.96 C 928.39 133.47 935.06 135.53 936.97 141.11 C 939.02 148.11 937.83 155.49 938.17 162.66 C 935.18 162.76 932.19 162.75 929.21 162.72 C 929.16 157.17 929.43 151.59 929.10 146.05 C 928.88 143.90 927.11 142.60 925.35 141.71 C 924.45 141.73 922.67 141.76 921.78 141.78 C 920.68 142.73 919.63 143.73 918.61 144.76 C 918.36 150.74 918.50 156.72 918.51 162.71 C 915.51 162.75 912.53 162.75 909.55 162.71 C 909.61 153.37 909.53 144.03 909.59 134.69 Z" />
<path fill="#fefefe" opacity="1.00" d=" M 379.85 134.67 C 386.75 133.35 394.36 136.29 397.17 143.02 C 397.66 145.66 397.74 148.36 397.71 151.04 C 391.04 151.10 384.37 150.90 377.71 151.16 C 378.37 153.27 379.52 155.18 381.53 156.24 C 382.49 156.23 384.41 156.22 385.36 156.21 C 386.31 155.38 387.25 154.53 388.16 153.65 C 391.14 153.55 394.12 153.56 397.10 153.63 C 395.91 158.60 391.25 162.73 386.08 162.89 C 383.11 163.03 379.96 163.13 377.15 162.01 C 367.67 157.87 366.74 142.80 375.06 137.02 C 376.56 136.06 378.24 135.42 379.85 134.67 M 377.85 146.18 C 381.55 146.19 385.26 146.21 388.97 146.16 C 388.69 144.33 387.62 142.90 386.38 141.61 C 382.75 140.86 378.60 142.07 377.85 146.18 Z" />
<path fill="#fefefe" opacity="1.00" d=" M 429.59 143.69 C 431.27 139.23 434.85 135.12 439.83 134.58 C 442.36 134.22 444.83 134.86 447.20 135.69 C 448.27 136.65 449.32 137.64 450.34 138.67 C 450.33 137.34 450.33 136.01 450.35 134.69 C 453.31 134.69 456.26 134.68 459.23 134.70 C 459.25 144.03 459.21 153.36 459.25 162.69 C 456.26 162.75 453.27 162.74 450.28 162.72 C 450.30 161.83 450.33 160.06 450.35 159.18 C 447.13 163.40 441.27 163.74 436.56 162.25 C 433.41 160.83 431.42 157.91 429.86 154.95 C 429.10 151.24 429.24 147.44 429.59 143.69 M 438.64 145.64 C 436.10 149.89 439.77 156.76 445.06 155.67 C 449.80 155.31 451.51 149.16 449.61 145.40 C 448.68 143.05 446.09 142.33 443.93 141.59 C 441.90 142.49 439.42 143.30 438.64 145.64 Z" />
<path fill="#fefefe" opacity="1.00" d=" M 486.83 162.67 C 487.08 153.33 486.35 143.95 487.23 134.64 C 490.00 134.70 492.76 134.69 495.53 134.67 C 495.54 136.20 495.55 137.74 495.56 139.28 C 497.93 136.72 500.93 134.74 504.48 134.33 C 504.49 137.38 504.46 140.43 504.49 143.49 C 501.32 143.69 497.04 143.59 495.85 147.29 C 495.20 152.40 495.73 157.61 495.58 162.75 C 492.66 162.74 489.74 162.75 486.83 162.67 Z" />
<path fill="#fefefe" opacity="1.00" d=" M 611.21 134.68 C 614.07 134.69 616.94 134.70 619.80 134.65 C 621.23 141.32 622.51 148.02 623.77 154.72 C 625.62 148.10 627.03 141.37 628.69 134.70 C 631.63 134.69 634.58 134.71 637.53 134.62 C 638.11 136.08 638.55 137.59 638.95 139.12 C 639.27 140.46 639.55 141.82 639.85 143.17 C 640.72 146.23 641.51 149.32 641.87 152.49 C 642.24 152.58 642.96 152.75 643.32 152.83 C 644.19 146.73 645.56 140.71 646.75 134.66 C 649.44 134.69 652.14 134.69 654.85 134.69 C 652.37 144.03 649.76 153.34 647.30 162.70 C 644.08 162.75 640.85 162.72 637.64 162.78 C 636.69 159.49 635.83 156.18 635.11 152.85 C 634.44 150.17 633.86 147.47 632.90 144.88 C 631.51 150.86 630.02 156.82 628.45 162.76 C 625.26 162.73 622.07 162.73 618.88 162.74 C 616.32 153.39 613.75 144.04 611.21 134.68 Z" />
<path fill="#fefefe" opacity="1.00" d=" M 816.55 134.66 C 819.42 134.69 822.30 134.69 825.18 134.69 C 825.21 135.65 825.26 137.56 825.29 138.52 C 828.33 134.83 833.51 133.66 838.00 135.16 C 840.64 136.40 842.67 138.51 843.98 141.11 C 845.34 148.23 844.36 155.54 844.68 162.75 C 841.83 162.74 838.99 162.74 836.15 162.72 C 836.25 157.39 836.10 152.06 836.25 146.73 C 835.53 144.66 834.39 142.75 832.38 141.71 C 831.47 141.73 829.66 141.75 828.75 141.77 C 827.25 142.87 825.48 144.05 825.35 146.10 C 825.04 151.63 825.32 157.19 825.22 162.73 C 822.31 162.73 819.40 162.74 816.50 162.74 C 816.56 153.38 816.48 144.02 816.55 134.66 Z" />
</g>
</svg>
