<?xml version="1.0" encoding="UTF-8" ?>
<!DOCTYPE svg PUBLIC "-//W3C//DTD SVG 1.1//EN" "http://www.w3.org/Graphics/SVG/1.1/DTD/svg11.dtd">
<svg width="1000pt" height="200pt" viewBox="0 0 1000 200" version="1.1" xmlns="http://www.w3.org/2000/svg">
<g id="#0076bcff">
<path fill="#0076bc" opacity="1.00" d=" M 158.60 18.03 C 167.00 19.65 175.15 22.47 183.62 23.79 C 183.54 25.22 183.28 26.61 182.84 27.96 C 181.53 33.96 180.43 40.00 178.90 45.95 C 178.62 47.61 178.33 49.29 177.83 50.90 C 176.48 56.90 175.47 62.98 173.82 68.89 C 172.26 76.58 170.67 84.27 168.83 91.90 C 165.98 105.60 162.88 119.24 159.90 132.91 C 158.57 138.92 157.33 144.96 155.93 150.96 C 155.66 152.61 155.36 154.27 154.85 155.88 C 153.38 163.78 151.02 171.53 150.16 179.53 C 148.40 179.82 146.64 179.70 145.05 178.83 C 144.00 178.64 142.95 178.45 141.90 178.26 C 136.46 176.63 130.87 175.34 125.27 174.36 C 125.16 172.16 125.25 169.93 125.83 167.80 C 127.81 159.94 129.12 151.92 131.14 144.07 C 132.65 136.68 134.29 129.32 135.90 121.96 C 137.52 115.71 138.40 109.29 140.17 103.09 C 140.40 101.72 140.63 100.35 140.87 98.98 C 142.56 92.75 143.43 86.32 145.18 80.10 C 146.78 72.42 148.35 64.71 150.18 57.08 C 151.49 51.09 152.63 45.05 154.11 39.10 C 155.59 32.07 157.18 25.07 158.60 18.03 Z" />
<path fill="#0076bc" opacity="1.00" d=" M 812.24 32.12 C 818.59 29.12 824.87 25.97 831.26 23.03 C 831.24 26.48 831.24 29.94 831.27 33.40 C 824.96 36.18 818.55 38.71 812.24 41.47 C 812.25 38.35 812.25 35.24 812.24 32.12 Z" />
<path fill="#0076bc" opacity="1.00" d=" M 700.12 26.04 C 705.19 23.93 711.96 28.35 710.73 34.11 C 709.79 40.78 699.68 42.26 696.14 36.90 C 693.33 33.14 695.49 27.07 700.12 26.04 Z" />
<path fill="#0076bc" opacity="1.00" d=" M 416.25 30.51 C 420.66 30.50 425.08 30.50 429.50 30.51 C 429.47 37.33 429.56 44.16 429.44 50.98 C 435.08 42.64 448.09 42.02 455.28 48.64 C 461.22 53.84 463.17 62.32 462.34 69.92 C 461.74 76.28 458.80 82.73 453.32 86.31 C 445.99 91.36 434.78 90.15 429.45 82.73 C 429.48 84.73 429.50 86.73 429.52 88.73 C 425.10 88.76 420.67 88.75 416.25 88.75 C 416.25 69.33 416.26 49.92 416.25 30.51 M 435.43 56.63 C 429.10 59.34 427.86 68.26 431.46 73.61 C 433.98 77.51 439.57 78.70 443.60 76.52 C 450.75 72.62 450.60 60.34 443.24 56.74 C 440.80 55.69 437.88 55.61 435.43 56.63 Z" />
<path fill="#0076bc" opacity="1.00" d=" M 671.75 33.51 C 676.25 33.50 680.75 33.50 685.25 33.51 C 685.23 46.35 685.27 59.19 685.24 72.03 C 685.33 78.76 681.54 85.74 674.94 87.97 C 667.07 90.68 656.81 89.50 651.50 82.49 C 648.69 79.07 648.06 74.56 647.62 70.31 C 652.11 70.21 656.60 70.26 661.10 70.26 C 661.43 72.01 661.35 74.00 662.59 75.42 C 664.57 78.08 669.36 77.92 670.98 74.94 C 671.85 73.43 671.73 71.61 671.77 69.93 C 671.72 57.79 671.76 45.65 671.75 33.51 Z" />
<path fill="#0076bc" opacity="1.00" d=" M 314.75 33.51 C 322.51 33.50 330.28 33.52 338.04 33.49 C 343.40 33.48 349.07 35.04 352.90 38.98 C 359.18 45.21 359.12 56.62 352.68 62.71 C 350.62 64.74 347.91 65.86 345.26 66.88 C 349.55 74.16 353.79 81.46 358.01 88.78 C 352.95 88.73 347.89 88.73 342.84 88.77 C 338.96 81.76 335.15 74.72 331.23 67.73 C 330.42 67.74 328.81 67.75 328.00 67.75 C 327.99 74.75 328.01 81.75 327.99 88.75 C 323.58 88.74 319.17 88.75 314.76 88.75 C 314.74 70.34 314.75 51.92 314.75 33.51 M 328.00 44.51 C 328.00 49.09 328.00 53.67 328.00 58.25 C 331.68 58.16 335.39 58.53 339.05 58.01 C 345.01 57.01 345.60 47.02 339.93 45.20 C 336.06 44.06 331.97 44.60 328.00 44.51 Z" />
<path fill="#0076bc" opacity="1.00" d=" M 554.00 34.00 C 558.50 34.00 562.99 34.00 567.49 34.00 C 567.49 37.58 567.49 41.16 567.49 44.74 C 570.41 44.75 573.32 44.75 576.25 44.76 C 576.25 48.50 576.25 52.25 576.25 56.00 C 573.32 55.99 570.40 56.00 567.48 56.03 C 567.66 62.43 567.20 68.86 567.68 75.24 C 569.13 78.52 573.45 76.87 576.25 77.26 C 576.25 81.09 576.25 84.91 576.25 88.73 C 570.66 88.65 564.50 89.49 559.55 86.30 C 555.47 83.70 554.04 78.58 554.01 74.00 C 553.96 68.00 554.02 62.00 554.00 56.00 C 552.24 56.00 550.49 56.00 548.75 56.00 C 548.74 52.25 548.74 48.50 548.76 44.75 C 550.49 44.75 552.24 44.75 553.99 44.75 C 554.00 41.17 554.00 37.59 554.00 34.00 Z" />
<path fill="#0076bc" opacity="1.00" d=" M 380.54 44.69 C 387.54 43.38 395.32 44.47 400.98 49.05 C 411.85 57.75 411.52 76.98 400.06 85.06 C 392.12 90.63 380.67 90.85 372.55 85.55 C 360.54 77.74 360.04 57.91 371.13 49.08 C 373.84 46.88 377.13 45.43 380.54 44.69 M 382.39 56.52 C 376.38 59.28 375.83 67.51 378.17 72.91 C 380.35 78.00 387.58 79.22 391.64 75.68 C 395.64 72.10 396.03 65.77 394.06 61.04 C 392.28 56.64 386.67 54.46 382.39 56.52 Z" />
<path fill="#0076bc" opacity="1.00" d=" M 475.99 47.87 C 484.86 42.20 497.92 42.85 505.42 50.56 C 510.32 55.68 511.55 63.10 510.93 69.92 C 500.70 70.12 490.47 69.91 480.24 70.03 C 480.74 71.93 480.97 74.05 482.37 75.56 C 485.65 79.82 493.29 79.31 495.67 74.33 C 500.47 74.18 505.29 74.27 510.10 74.27 C 508.43 80.16 504.17 85.25 498.45 87.55 C 489.04 91.45 476.50 89.11 470.72 80.24 C 464.36 70.27 465.84 54.83 475.99 47.87 M 480.30 62.47 C 486.04 62.52 491.78 62.55 497.53 62.45 C 497.13 58.16 493.39 54.59 489.00 54.95 C 484.56 54.62 481.09 58.35 480.30 62.47 Z" />
<path fill="#0076bc" opacity="1.00" d=" M 598.51 44.65 C 605.51 43.39 613.28 44.54 618.89 49.18 C 629.34 57.74 629.24 76.13 618.57 84.50 C 610.83 90.47 599.30 90.97 590.96 85.97 C 578.51 78.59 577.58 58.56 588.48 49.41 C 591.31 46.97 594.85 45.39 598.51 44.65 M 600.35 56.44 C 594.17 59.04 593.55 67.41 595.90 72.86 C 598.08 78.10 605.59 79.27 609.61 75.48 C 613.38 71.87 613.74 65.75 611.83 61.11 C 610.12 56.76 604.62 54.50 600.35 56.44 Z" />
<path fill="#0076bc" opacity="1.00" d=" M 732.75 50.10 C 739.81 41.50 755.09 42.60 760.61 52.36 C 765.67 44.64 776.55 41.96 784.63 46.41 C 790.35 49.28 793.27 55.81 793.25 62.00 C 793.26 70.91 793.24 79.83 793.24 88.75 C 788.83 88.75 784.42 88.74 780.01 88.75 C 779.98 81.18 780.01 73.61 780.01 66.05 C 780.04 62.90 779.40 59.25 776.60 57.36 C 773.39 55.30 768.75 55.44 765.77 57.88 C 763.49 59.87 763.02 63.09 763.00 65.95 C 762.98 73.55 763.02 81.15 762.99 88.75 C 758.58 88.75 754.18 88.74 749.77 88.76 C 749.71 81.15 749.77 73.55 749.76 65.94 C 749.74 63.30 749.37 60.43 747.54 58.39 C 744.87 55.57 740.29 55.32 736.92 56.91 C 733.96 58.40 732.83 61.86 732.79 64.98 C 732.67 72.90 732.79 80.82 732.75 88.75 C 728.33 88.75 723.92 88.74 719.51 88.75 C 719.50 74.09 719.50 59.42 719.51 44.75 C 723.91 44.75 728.32 44.75 732.74 44.75 C 732.73 46.53 732.74 48.32 732.75 50.10 Z" />
<path fill="#0076bc" opacity="1.00" d=" M 809.04 47.83 C 817.90 42.21 830.89 42.86 838.38 50.52 C 843.30 55.64 844.55 63.08 843.93 69.92 C 833.70 70.12 823.47 69.92 813.25 70.03 C 813.66 73.41 815.44 77.10 819.02 78.02 C 822.64 79.29 826.93 77.78 828.70 74.32 C 833.50 74.20 838.30 74.26 843.10 74.27 C 841.43 80.17 837.15 85.26 831.42 87.56 C 821.79 91.56 808.88 88.95 803.31 79.60 C 797.45 69.61 799.04 54.62 809.04 47.83 M 813.30 62.47 C 819.04 62.52 824.78 62.54 830.52 62.45 C 830.14 58.15 826.37 54.58 821.98 54.95 C 817.54 54.63 814.09 58.35 813.30 62.47 Z" />
<path fill="#0076bc" opacity="1.00" d=" M 864.47 50.51 C 870.08 43.51 881.31 42.17 888.41 47.64 C 892.76 50.99 894.73 56.62 894.75 61.97 C 894.75 70.90 894.74 79.82 894.75 88.75 C 890.35 88.75 885.95 88.71 881.56 88.80 C 881.42 80.89 881.56 72.99 881.50 65.08 C 881.40 62.32 880.77 59.27 878.55 57.41 C 875.44 54.86 870.49 54.86 867.41 57.45 C 865.04 59.58 864.55 62.94 864.50 65.96 C 864.47 73.56 864.52 81.16 864.48 88.76 C 860.07 88.74 855.66 88.75 851.25 88.75 C 851.25 74.08 851.25 59.42 851.25 44.75 C 855.66 44.75 860.08 44.75 864.50 44.75 C 864.49 46.67 864.48 48.59 864.47 50.51 Z" />
<path fill="#0076bc" opacity="1.00" d=" M 910.87 47.79 C 919.78 42.18 932.89 42.88 940.30 50.71 C 945.11 55.80 946.22 63.12 945.73 69.85 C 935.47 70.23 925.20 69.81 914.94 70.08 C 915.49 72.28 915.97 74.71 917.78 76.29 C 921.43 79.80 928.21 78.92 930.52 74.28 C 935.29 74.23 940.07 74.25 944.85 74.27 C 943.17 80.06 939.04 85.14 933.41 87.46 C 923.82 91.57 910.85 89.09 905.19 79.80 C 899.15 69.80 900.74 54.58 910.87 47.79 M 915.05 62.47 C 920.77 62.53 926.50 62.51 932.23 62.48 C 931.95 58.27 928.33 54.71 924.03 54.96 C 919.49 54.49 915.82 58.21 915.05 62.47 Z" />
<path fill="#0076bc" opacity="1.00" d=" M 518.22 44.79 C 522.64 44.71 527.07 44.76 531.50 44.75 C 531.50 47.20 531.49 49.65 531.42 52.10 C 534.65 47.49 539.77 44.37 545.46 44.09 C 545.52 48.88 545.49 53.67 545.50 58.46 C 541.80 58.62 537.62 58.11 534.45 60.41 C 531.86 62.47 531.63 66.00 531.52 69.05 C 531.44 75.61 531.52 82.18 531.50 88.74 C 527.08 88.75 522.67 88.75 518.25 88.75 C 518.23 74.10 518.30 59.44 518.22 44.79 Z" />
<path fill="#0076bc" opacity="1.00" d=" M 696.25 44.76 C 700.66 44.74 705.07 44.75 709.49 44.75 C 709.44 59.45 709.62 74.15 709.40 88.84 C 705.02 88.67 700.63 88.77 696.25 88.75 C 696.25 74.08 696.26 59.42 696.25 44.76 Z" />
<path fill="#0076bc" opacity="1.00" d=" M 950.50 55.74 C 950.50 52.08 950.49 48.41 950.51 44.75 C 961.76 44.75 973.00 44.74 984.24 44.75 C 983.99 48.38 984.82 52.25 983.82 55.73 C 977.81 63.12 971.61 70.37 965.43 77.61 C 971.77 77.92 978.13 77.67 984.49 77.75 C 984.49 81.42 984.49 85.09 984.49 88.76 C 973.17 88.76 961.86 88.70 950.54 88.79 C 950.48 85.17 950.49 81.55 950.51 77.94 C 956.61 70.55 962.72 63.17 968.78 55.74 C 962.68 55.75 956.59 55.75 950.50 55.74 Z" />
</g>
<g id="#eed52bff">
<path fill="#eed52b" opacity="1.00" d=" M 226.34 29.33 C 227.50 28.37 228.29 25.97 230.10 26.46 C 247.19 44.42 264.41 62.27 281.61 80.13 L 281.36 80.76 C 275.34 87.28 268.94 93.45 262.95 100.00 C 245.59 82.32 228.77 64.11 211.38 46.45 C 211.42 46.09 211.50 45.38 211.54 45.03 C 216.64 39.96 221.38 34.53 226.34 29.33 Z" />
</g>
<g id="#e34b21ff">
<path fill="#e34b21" opacity="1.00" d=" M 83.08 27.27 C 89.33 32.70 94.25 39.50 100.44 44.99 C 100.52 45.48 100.69 46.45 100.77 46.93 C 83.60 64.54 66.89 82.60 49.93 100.41 C 44.25 106.72 37.57 112.15 32.61 119.07 L 32.10 119.78 C 26.39 113.48 20.41 107.42 14.46 101.35 C 14.41 101.03 14.30 100.37 14.25 100.05 C 32.32 80.86 50.69 61.93 68.76 42.72 C 73.35 37.40 78.73 32.79 83.08 27.27 Z" />
</g>
<g id="#efda4dff">
<path fill="#efda4d" opacity="1.00" d=" M 281.36 80.76 L 282.02 80.32 C 287.53 85.34 292.12 91.35 297.55 96.51 C 298.39 97.53 299.93 98.35 299.79 99.88 C 292.73 106.79 286.50 114.54 279.24 121.25 C 263.31 138.05 247.48 154.95 231.53 171.72 C 230.98 172.39 230.46 173.08 229.96 173.78 C 224.70 167.48 218.69 161.84 213.13 155.80 C 212.61 155.19 212.32 154.47 212.25 153.65 C 219.87 146.45 226.54 138.32 233.96 130.92 C 243.52 120.52 253.43 110.44 262.95 100.00 C 268.94 93.45 275.34 87.28 281.36 80.76 Z" />
</g>
<g id="#f06426ff">
<path fill="#f06426" opacity="1.00" d=" M 32.61 119.07 C 37.57 112.15 44.25 106.72 49.93 100.41 L 50.92 100.05 C 57.26 107.67 64.65 114.36 71.39 121.63 C 80.33 131.30 89.66 140.61 98.70 150.19 C 99.66 151.30 101.18 152.26 100.97 153.94 C 95.68 160.38 89.51 166.07 84.18 172.47 C 83.82 172.50 83.11 172.54 82.76 172.57 C 74.19 162.74 64.58 153.86 55.83 144.19 C 47.94 136.07 40.18 127.80 32.11 119.86 L 32.61 119.07 Z" />
</g>
<g id="#fefefeff">
<path fill="#fefefe" opacity="1.00" d=" M 540.26 160.50 C 540.25 148.50 540.24 136.50 540.26 124.49 C 543.08 124.51 545.91 124.51 548.74 124.49 C 548.77 136.49 548.73 148.49 548.76 160.49 C 545.92 160.50 543.09 160.49 540.26 160.50 Z" />
<path fill="#fefefe" opacity="1.00" d=" M 555.00 124.50 C 557.83 124.50 560.66 124.50 563.50 124.50 C 563.50 136.50 563.50 148.50 563.50 160.50 C 560.66 160.50 557.83 160.50 555.00 160.50 C 555.00 148.50 555.00 136.50 555.00 124.50 Z" />
<path fill="#fefefe" opacity="1.00" d=" M 684.50 124.50 C 687.33 124.50 690.16 124.50 693.00 124.50 C 692.99 128.67 693.03 132.83 692.96 137.00 C 697.33 131.13 707.21 131.87 711.07 137.93 C 715.04 144.16 714.51 153.78 708.48 158.57 C 703.91 162.13 696.62 161.55 692.98 156.93 C 692.98 157.82 693.00 159.60 693.01 160.50 C 690.17 160.50 687.33 160.50 684.50 160.50 C 684.50 148.50 684.50 136.50 684.50 124.50 M 696.54 140.71 C 691.15 143.06 691.92 152.84 698.07 153.54 C 702.37 154.40 705.72 149.91 704.99 145.92 C 704.82 141.89 700.25 138.88 696.54 140.71 Z" />
<path fill="#fefefe" opacity="1.00" d=" M 950.51 124.50 C 953.33 124.50 956.16 124.50 959.00 124.50 C 959.00 136.50 959.00 148.50 959.00 160.50 C 956.15 160.50 953.31 160.50 950.48 160.50 C 950.50 159.58 950.54 157.74 950.56 156.82 C 946.91 161.67 939.26 162.16 934.73 158.33 C 928.74 153.21 928.34 143.12 933.10 137.07 C 937.30 131.67 946.22 131.64 950.59 136.88 C 950.43 132.76 950.52 128.63 950.51 124.50 M 942.49 140.53 C 936.48 142.54 937.41 153.19 943.95 153.56 C 948.53 154.32 951.51 149.02 950.29 145.06 C 949.74 141.57 945.78 139.25 942.49 140.53 Z" />
<path fill="#fefefe" opacity="1.00" d=" M 339.50 126.26 C 347.48 126.65 356.32 124.77 363.47 129.30 C 373.12 135.31 373.11 151.46 363.50 157.52 C 356.35 162.13 347.49 160.02 339.50 160.50 C 339.50 149.08 339.51 137.67 339.50 126.26 M 348.00 133.49 C 348.00 140.08 348.00 146.67 348.00 153.26 C 351.53 153.21 355.48 153.73 358.52 151.50 C 362.92 148.16 363.10 141.14 360.12 136.81 C 357.26 133.10 352.19 133.38 348.00 133.49 Z" />
<path fill="#fefefe" opacity="1.00" d=" M 728.25 126.25 C 735.75 126.25 743.25 126.25 750.75 126.25 C 750.74 128.50 750.74 130.75 750.75 133.00 C 746.08 133.00 741.41 133.00 736.75 133.00 C 736.74 135.42 736.74 137.83 736.75 140.25 C 740.24 140.25 743.74 140.25 747.25 140.26 C 747.24 142.41 747.24 144.57 747.26 146.73 C 743.75 146.75 740.25 146.75 736.75 146.75 C 736.74 151.33 736.75 155.92 736.75 160.50 C 733.91 160.49 731.08 160.49 728.25 160.50 C 728.25 149.08 728.25 137.67 728.25 126.25 Z" />
<path fill="#fefefe" opacity="1.00" d=" M 871.50 126.26 C 878.58 126.24 885.66 126.25 892.75 126.25 C 892.74 128.50 892.74 130.75 892.75 133.00 C 888.50 133.00 884.25 133.00 880.00 133.00 C 879.99 135.33 879.99 137.67 880.00 140.00 C 883.75 140.00 887.49 140.00 891.25 140.00 C 891.24 142.08 891.24 144.16 891.25 146.25 C 887.49 146.25 883.75 146.25 880.00 146.24 C 879.99 148.75 879.99 151.25 880.00 153.76 C 884.25 153.75 888.49 153.75 892.75 153.75 C 892.74 156.00 892.74 158.25 892.75 160.50 C 885.66 160.49 878.58 160.50 871.50 160.50 C 871.50 149.08 871.51 137.67 871.50 126.26 Z" />
<path fill="#fefefe" opacity="1.00" d=" M 842.51 126.75 C 845.23 126.76 847.96 126.76 850.70 126.72 C 850.74 128.89 850.74 131.07 850.76 133.25 C 852.58 133.25 854.40 133.25 856.25 133.25 C 856.24 135.58 856.24 137.92 856.25 140.25 C 854.40 140.25 852.57 140.25 850.75 140.25 C 850.83 144.15 850.54 148.07 850.90 151.96 C 851.66 154.29 854.70 153.20 856.50 153.57 C 856.49 155.88 856.49 158.19 856.50 160.50 C 851.85 160.62 845.30 161.06 843.24 155.79 C 841.70 150.79 842.85 145.41 842.51 140.25 C 841.33 140.25 840.16 140.25 839.00 140.25 C 838.99 137.91 838.99 135.58 839.00 133.25 C 840.15 133.25 841.32 133.25 842.50 133.25 C 842.49 131.08 842.49 128.92 842.51 126.75 Z" />
<path fill="#fefefe" opacity="1.00" d=" M 380.47 134.58 C 386.39 131.59 394.84 132.58 398.82 138.27 C 401.06 141.36 401.43 145.29 401.23 148.99 C 394.76 149.04 388.28 148.91 381.81 149.08 C 382.44 151.53 384.03 154.32 386.99 154.04 C 389.04 154.45 390.62 152.98 391.83 151.55 C 394.80 151.48 397.78 151.48 400.76 151.56 C 398.39 159.78 388.18 163.10 380.87 159.45 C 371.37 155.09 371.16 139.28 380.47 134.58 M 381.86 144.23 C 385.50 144.26 389.15 144.28 392.79 144.20 C 392.22 138.06 382.68 138.34 381.86 144.23 Z" />
<path fill="#fefefe" opacity="1.00" d=" M 407.28 136.21 C 413.58 130.07 427.14 132.52 428.20 142.23 C 425.64 142.25 423.08 142.26 420.52 142.23 C 419.56 138.76 414.61 138.08 412.64 140.98 C 415.21 145.04 420.92 143.82 424.58 146.36 C 429.30 148.77 429.21 156.29 424.69 158.86 C 417.71 163.19 405.46 160.73 404.15 151.51 C 406.88 151.50 409.63 151.50 412.37 151.50 C 413.29 154.46 417.44 156.00 419.79 153.73 C 421.03 152.70 419.86 150.91 418.59 150.68 C 414.87 149.24 410.52 149.20 407.37 146.52 C 404.43 143.92 404.54 138.91 407.28 136.21 Z" />
<path fill="#fefefe" opacity="1.00" d=" M 434.10 138.05 C 437.92 131.87 447.83 131.13 452.34 136.95 C 452.31 136.03 452.25 134.18 452.22 133.26 C 455.06 133.25 457.90 133.25 460.75 133.25 C 460.79 142.31 460.66 151.38 460.82 160.44 C 457.95 160.51 455.09 160.51 452.23 160.49 C 452.25 159.59 452.29 157.77 452.31 156.86 C 448.64 161.61 441.15 162.16 436.59 158.43 C 430.74 153.62 430.24 144.23 434.10 138.05 M 444.39 140.46 C 439.52 142.05 438.80 149.39 442.67 152.40 C 445.48 154.74 450.45 153.58 451.63 150.00 C 454.15 145.37 449.84 138.54 444.39 140.46 Z" />
<path fill="#fefefe" opacity="1.00" d=" M 475.21 137.69 C 477.35 135.07 480.32 133.16 483.76 132.90 C 483.74 135.81 483.73 138.73 483.77 141.66 C 480.78 141.86 476.39 141.71 475.55 145.43 C 474.86 150.40 475.43 155.48 475.25 160.50 C 472.41 160.50 469.58 160.50 466.75 160.49 C 466.75 151.41 466.75 142.33 466.75 133.25 C 469.58 133.25 472.42 133.25 475.26 133.25 C 475.24 134.73 475.23 136.21 475.21 137.69 Z" />
<path fill="#fefefe" opacity="1.00" d=" M 496.21 137.68 C 498.35 135.06 501.32 133.16 504.76 132.90 C 504.74 135.82 504.73 138.74 504.77 141.66 C 501.79 141.87 497.42 141.71 496.56 145.40 C 495.85 150.39 496.43 155.47 496.25 160.49 C 493.41 160.50 490.58 160.50 487.75 160.50 C 487.75 151.41 487.75 142.33 487.75 133.25 C 490.58 133.25 493.42 133.25 496.26 133.25 C 496.23 134.73 496.23 136.21 496.21 137.68 Z" />
<path fill="#fefefe" opacity="1.00" d=" M 519.04 133.14 C 523.41 132.53 528.21 133.40 531.57 136.43 C 537.75 141.88 537.46 152.96 530.83 157.94 C 524.78 162.43 515.00 161.88 510.22 155.76 C 506.05 150.21 506.45 141.39 511.63 136.59 C 513.65 134.68 516.33 133.63 519.04 133.14 M 519.48 140.61 C 513.78 143.07 515.05 154.15 521.95 153.70 C 527.15 153.43 528.61 146.73 526.43 142.85 C 525.18 140.37 521.92 139.61 519.48 140.61 Z" />
<path fill="#fefefe" opacity="1.00" d=" M 577.53 133.61 C 582.54 132.19 588.45 133.02 592.34 136.68 C 598.17 142.13 597.87 152.73 591.60 157.73 C 585.16 162.87 573.90 161.79 569.74 154.25 C 565.42 146.92 568.79 135.69 577.53 133.61 M 580.41 140.45 C 574.41 142.41 575.27 153.67 582.04 153.69 C 586.03 153.89 588.44 149.56 587.83 145.98 C 587.89 142.22 584.07 139.07 580.41 140.45 Z" />
<path fill="#fefefe" opacity="1.00" d=" M 608.40 133.25 C 611.22 133.25 614.05 133.26 616.88 133.23 C 618.15 139.67 619.42 146.10 620.75 152.53 C 622.43 146.14 623.91 139.69 625.41 133.26 C 628.38 133.25 631.35 133.25 634.33 133.26 C 635.88 139.58 637.28 145.94 639.00 152.22 C 640.56 145.96 641.55 139.58 642.83 133.26 C 645.50 133.25 648.17 133.25 650.84 133.25 C 648.34 142.33 645.85 151.42 643.37 160.51 C 640.26 160.49 637.16 160.49 634.07 160.50 C 632.57 154.64 631.14 148.77 629.74 142.89 C 628.14 148.73 626.75 154.63 625.22 160.50 C 622.13 160.50 619.04 160.50 615.95 160.50 C 613.42 151.42 610.96 142.32 608.40 133.25 Z" />
<path fill="#fefefe" opacity="1.00" d=" M 659.38 134.50 C 665.14 131.70 673.12 132.58 677.24 137.81 C 679.75 140.94 680.17 145.09 680.02 148.96 C 673.55 149.06 667.09 148.94 660.63 149.03 C 660.80 154.16 668.03 156.00 670.58 151.55 C 673.54 151.47 676.50 151.48 679.46 151.54 C 677.19 159.83 666.83 163.12 659.54 159.41 C 650.05 154.98 649.96 139.07 659.38 134.50 M 660.64 144.22 C 664.27 144.27 667.90 144.27 671.53 144.21 C 670.99 138.06 661.42 138.33 660.64 144.22 Z" />
<path fill="#fefefe" opacity="1.00" d=" M 766.31 135.24 C 767.92 133.73 770.15 133.30 772.24 132.84 C 772.25 135.78 772.24 138.72 772.25 141.66 C 769.33 141.91 765.20 141.64 764.12 145.11 C 763.28 150.18 763.96 155.38 763.75 160.50 C 760.91 160.49 758.08 160.49 755.25 160.50 C 755.23 151.43 755.30 142.36 755.21 133.29 C 758.07 133.24 760.93 133.24 763.80 133.26 L 763.71 136.58 L 762.74 137.56 C 764.28 137.55 765.13 136.03 766.31 135.24 Z" />
<path fill="#fefefe" opacity="1.00" d=" M 784.48 133.63 C 789.50 132.18 795.45 133.01 799.34 136.69 C 805.16 142.13 804.87 152.71 798.62 157.71 C 792.18 162.87 780.92 161.80 776.75 154.27 C 772.43 146.95 775.77 135.74 784.48 133.63 M 787.41 140.45 C 781.42 142.41 782.27 153.64 789.01 153.69 C 793.03 153.91 795.46 149.53 794.83 145.92 C 794.86 142.19 791.05 139.07 787.41 140.45 Z" />
<path fill="#fefefe" opacity="1.00" d=" M 816.19 136.80 C 819.52 133.08 825.27 131.84 829.73 134.23 C 833.43 135.95 835.05 140.19 835.20 144.04 C 835.34 149.52 835.20 155.01 835.25 160.50 C 832.41 160.50 829.58 160.50 826.75 160.49 C 826.54 154.83 827.16 149.09 826.44 143.47 C 825.30 138.48 817.01 138.99 816.40 144.05 C 816.03 149.52 816.36 155.02 816.25 160.49 C 813.41 160.50 810.58 160.50 807.75 160.50 C 807.75 151.41 807.75 142.33 807.75 133.25 C 810.58 133.25 813.42 133.25 816.27 133.26 C 816.25 134.14 816.21 135.91 816.19 136.80 Z" />
<path fill="#fefefe" opacity="1.00" d=" M 898.25 133.25 C 901.08 133.25 903.92 133.25 906.77 133.25 C 906.75 134.13 906.71 135.88 906.69 136.76 C 910.26 132.75 916.67 131.77 921.17 134.77 C 924.56 136.91 925.68 141.16 925.74 144.95 C 925.78 150.13 925.72 155.32 925.75 160.50 C 922.91 160.49 920.08 160.49 917.25 160.50 C 917.13 154.99 917.49 149.47 917.09 143.98 C 916.56 139.94 911.04 138.72 908.32 141.30 C 907.11 142.56 906.67 144.33 906.75 146.03 C 906.71 150.85 906.77 155.68 906.75 160.50 C 903.91 160.49 901.08 160.49 898.25 160.50 C 898.25 151.42 898.25 142.33 898.25 133.25 Z" />
</g>
</svg>
