<?xml version="1.0" encoding="UTF-8" ?>
<!DOCTYPE svg PUBLIC "-//W3C//DTD SVG 1.1//EN" "http://www.w3.org/Graphics/SVG/1.1/DTD/svg11.dtd">
<svg width="720pt" height="720pt" viewBox="0 0 720 720" version="1.1" xmlns="http://www.w3.org/2000/svg">
<g id="#0076bcff">
<path fill="#0076bc" opacity="1.00" d=" M 286.00 521.84 C 311.94 409.56 337.86 297.28 363.85 185.01 C 382.90 189.38 401.96 193.74 421.00 198.16 C 395.04 310.44 369.14 422.73 343.13 534.98 C 324.08 530.62 305.04 526.25 286.00 521.84 Z" />
</g>
<g id="#eed52bff">
<path fill="#eed52b" opacity="1.00" d=" M 483.01 245.19 C 497.08 230.78 511.19 216.41 525.28 202.03 C 564.91 241.19 604.59 280.31 644.15 319.53 C 629.98 333.82 615.62 347.91 601.60 362.36 C 562.04 323.34 522.54 284.25 483.01 245.19 Z" />
</g>
<g id="#e34b21ff">
<path fill="#e34b21" opacity="1.00" d=" M 76.66 320.59 C 115.11 282.02 153.67 243.54 192.19 205.03 C 205.80 218.61 219.40 232.21 232.99 245.82 C 194.33 284.51 155.64 323.18 116.95 361.85 C 105.75 372.70 94.89 383.89 83.81 394.85 C 80.79 397.84 77.74 400.79 74.98 404.02 C 68.51 398.42 62.57 391.79 56.30 385.79 C 48.90 378.22 41.02 371.01 33.90 363.23 C 47.05 349.93 60.20 336.63 73.31 323.29 C 74.34 322.27 75.24 321.07 76.66 320.59 Z" />
</g>
<g id="#efda4dff">
<path fill="#efda4d" opacity="1.00" d=" M 601.60 362.36 C 615.62 347.91 629.98 333.82 644.15 319.53 L 644.76 318.99 C 658.13 332.37 671.45 345.81 684.83 359.18 C 685.12 359.61 685.70 360.46 685.99 360.89 C 672.14 375.08 658.20 389.18 644.35 403.37 C 643.86 403.59 642.87 404.02 642.38 404.23 C 603.70 443.18 564.96 482.07 526.24 520.98 C 512.51 507.14 498.67 493.42 485.04 479.49 C 523.94 440.49 562.78 401.43 601.60 362.36 Z" />
</g>
<g id="#f06426ff">
<path fill="#f06426" opacity="1.00" d=" M 83.81 394.85 C 94.89 383.89 105.75 372.70 116.95 361.85 C 156.01 400.33 194.95 438.93 233.99 477.43 C 220.16 491.67 206.24 505.83 192.32 519.99 C 153.21 481.33 114.08 442.69 74.98 404.02 C 77.74 400.79 80.79 397.84 83.81 394.85 Z" />
</g>
</svg>
