<?xml version="1.0" encoding="UTF-8" ?>
<!DOCTYPE svg PUBLIC "-//W3C//DTD SVG 1.1//EN" "http://www.w3.org/Graphics/SVG/1.1/DTD/svg11.dtd">
<svg width="3260pt" height="409pt" viewBox="0 0 3260 409" version="1.1" xmlns="http://www.w3.org/2000/svg">
<g id="#0076bcff">
<path fill="#0076bc" opacity="1.00" d=" M 360.76 0.01 C 381.51 5.09 402.25 10.26 423.00 15.35 C 394.76 146.57 366.50 277.78 338.25 409.00 L 338.08 409.00 C 317.41 403.81 296.71 398.76 276.02 393.65 C 304.25 262.43 332.52 131.23 360.76 0.01 Z" />
<path fill="#0076bc" opacity="1.00" d=" M 2774.09 46.29 C 2790.07 38.88 2805.57 30.34 2821.67 23.25 C 2822.78 24.90 2822.01 27.16 2822.27 29.05 C 2822.22 36.32 2822.25 43.58 2822.25 50.85 C 2810.27 56.01 2798.28 61.15 2786.31 66.29 C 2782.23 67.91 2778.36 70.08 2774.10 71.15 C 2773.82 62.87 2773.84 54.57 2774.09 46.29 Z" />
<path fill="#0076bc" opacity="1.00" d=" M 1062.95 76.87 C 1080.20 74.50 1098.67 76.96 1113.57 86.39 C 1126.56 94.51 1135.77 108.15 1138.97 123.08 C 1126.35 123.61 1113.70 123.18 1101.07 123.30 C 1097.75 117.18 1092.12 112.33 1085.36 110.47 C 1073.88 107.22 1060.37 109.19 1051.47 117.53 C 1044.14 124.27 1040.74 134.27 1040.11 144.00 C 1039.55 153.40 1040.75 163.24 1045.43 171.55 C 1049.70 179.31 1057.46 184.83 1066.03 186.84 C 1075.10 188.94 1085.12 188.86 1093.55 184.51 C 1101.30 180.61 1106.50 173.08 1109.34 165.08 C 1095.45 165.04 1081.56 165.07 1067.68 165.06 C 1067.36 156.38 1067.43 147.68 1067.61 139.00 C 1068.83 138.02 1070.56 138.59 1072.02 138.41 C 1095.09 138.62 1118.19 138.11 1141.25 138.67 C 1141.14 149.43 1141.44 160.22 1141.12 170.98 C 1136.61 187.48 1125.14 201.91 1110.40 210.52 C 1084.37 225.47 1048.51 222.30 1026.36 201.70 C 1014.18 190.43 1007.00 174.43 1005.21 158.06 C 1002.92 138.16 1007.28 116.89 1019.95 101.03 C 1030.38 87.71 1046.28 79.17 1062.95 76.87 Z" />
<path fill="#0076bc" opacity="1.00" d=" M 1492.48 76.75 C 1511.09 73.47 1531.11 77.34 1546.58 88.37 C 1560.54 98.14 1570.30 113.41 1573.94 130.01 C 1577.86 147.81 1575.95 167.12 1567.42 183.35 C 1561.21 195.25 1551.42 205.25 1539.62 211.63 C 1519.85 222.42 1494.95 222.95 1474.62 213.36 C 1463.59 208.18 1453.98 200.00 1447.14 189.90 C 1428.05 161.85 1430.81 120.30 1455.09 96.13 C 1465.12 85.97 1478.42 79.19 1492.48 76.75 M 1497.55 108.75 C 1489.79 110.17 1482.57 114.50 1477.91 120.90 C 1471.77 129.21 1469.87 139.90 1470.20 150.04 C 1470.57 160.40 1473.78 171.20 1481.43 178.54 C 1490.93 187.79 1505.89 189.68 1518.12 185.45 C 1526.99 182.38 1533.96 174.99 1537.28 166.30 C 1541.01 156.54 1541.41 145.67 1539.23 135.51 C 1537.42 127.16 1532.98 119.15 1525.91 114.14 C 1517.82 108.30 1507.19 106.97 1497.55 108.75 Z" />
<path fill="#0076bc" opacity="1.00" d=" M 2193.57 76.74 C 2212.15 73.48 2232.13 77.36 2247.58 88.37 C 2261.30 97.97 2270.97 112.90 2274.75 129.16 C 2278.86 146.97 2277.13 166.34 2268.76 182.69 C 2262.57 194.88 2252.63 205.14 2240.59 211.64 C 2221.71 221.94 2198.15 222.88 2178.36 214.58 C 2167.30 209.96 2157.48 202.38 2150.24 192.82 C 2129.18 165.19 2130.87 122.31 2155.11 97.13 C 2165.28 86.40 2179.02 79.24 2193.57 76.74 M 2198.55 108.75 C 2190.78 110.18 2183.54 114.52 2178.89 120.93 C 2172.78 129.22 2170.87 139.88 2171.20 149.99 C 2171.55 160.13 2174.60 170.68 2181.91 178.02 C 2191.34 187.69 2206.62 189.76 2219.07 185.47 C 2227.94 182.41 2234.94 175.03 2238.27 166.34 C 2242.00 156.59 2242.41 145.73 2240.25 135.58 C 2238.44 127.21 2234.00 119.17 2226.93 114.15 C 2218.83 108.30 2208.19 106.96 2198.55 108.75 Z" />
<path fill="#0076bc" opacity="1.00" d=" M 777.26 77.83 C 788.81 77.45 800.40 77.57 811.96 77.77 C 812.08 124.67 811.92 171.58 812.04 218.48 C 800.54 218.95 788.96 218.89 777.46 218.53 C 776.96 204.69 777.39 190.82 777.25 176.97 C 777.25 143.92 777.24 110.88 777.26 77.83 Z" />
<path fill="#0076bc" opacity="1.00" d=" M 849.25 77.84 C 860.72 77.36 872.21 77.74 883.69 77.64 C 901.76 105.81 919.77 134.02 937.93 162.14 C 938.00 134.01 937.84 105.88 938.01 77.75 C 949.33 77.55 960.67 77.55 971.99 77.73 L 972.58 78.25 C 972.83 120.49 972.62 162.74 972.69 204.98 C 972.58 209.44 972.92 213.91 972.53 218.36 C 971.10 219.00 969.47 218.68 967.98 218.78 C 958.07 218.72 948.17 218.77 938.26 218.75 C 920.19 190.69 902.09 162.64 884.03 134.58 C 883.81 162.63 884.32 190.70 883.78 218.74 C 872.30 218.70 860.82 218.88 849.35 218.65 C 849.11 171.71 849.31 124.77 849.25 77.84 Z" />
<path fill="#0076bc" opacity="1.00" d=" M 1299.02 78.36 C 1313.68 78.39 1328.35 78.37 1343.02 78.37 C 1352.03 78.46 1361.16 77.83 1370.01 79.92 C 1381.32 82.29 1392.17 88.62 1398.34 98.61 C 1407.79 113.94 1407.08 135.45 1395.44 149.45 C 1390.09 155.95 1382.52 160.22 1374.60 162.76 C 1385.06 181.17 1395.53 199.58 1406.00 218.00 C 1393.44 217.96 1380.88 218.10 1368.33 217.92 C 1359.12 200.34 1349.47 182.99 1340.27 165.41 C 1337.59 165.30 1334.91 165.29 1332.25 165.31 C 1332.24 182.87 1332.25 200.43 1332.25 218.00 C 1321.16 218.00 1310.08 218.00 1299.00 218.00 C 1299.01 171.45 1298.98 124.91 1299.02 78.36 M 1332.24 106.64 C 1332.26 118.15 1332.24 129.67 1332.25 141.18 C 1338.17 141.20 1344.10 141.17 1350.03 141.20 C 1354.64 141.25 1359.53 141.11 1363.64 138.73 C 1367.53 136.60 1369.94 132.43 1370.62 128.11 C 1371.51 122.58 1370.93 116.29 1367.08 111.92 C 1363.57 107.95 1358.03 106.69 1352.93 106.65 C 1346.03 106.58 1339.13 106.63 1332.24 106.64 Z" />
<path fill="#0076bc" opacity="1.00" d=" M 1607.24 77.87 C 1622.16 77.30 1637.12 77.79 1652.07 77.63 C 1663.77 77.87 1675.74 76.63 1687.15 79.88 C 1696.99 82.54 1706.26 88.80 1710.76 98.17 C 1716.53 110.38 1715.61 126.20 1706.82 136.78 C 1703.26 141.09 1698.46 144.22 1693.31 146.29 C 1699.22 148.15 1704.67 151.55 1708.73 156.27 C 1721.55 170.78 1720.23 195.77 1705.28 208.32 C 1695.85 216.32 1683.06 218.82 1671.00 218.75 C 1649.78 218.69 1628.57 218.87 1607.36 218.66 C 1607.09 171.73 1607.34 124.80 1607.24 77.87 M 1642.01 106.37 C 1641.98 115.60 1642.00 124.83 1642.00 134.06 C 1649.00 134.05 1655.99 134.07 1663.00 134.06 C 1667.52 134.02 1672.53 133.21 1675.81 129.79 C 1679.56 125.60 1679.82 119.15 1677.89 114.09 C 1675.87 108.93 1670.10 106.70 1664.94 106.49 C 1657.30 106.22 1649.65 106.45 1642.01 106.37 M 1642.00 160.50 C 1642.00 170.27 1641.99 180.04 1642.01 189.82 C 1647.01 189.81 1652.02 189.81 1657.03 189.81 C 1663.49 189.63 1670.51 190.67 1676.38 187.31 C 1682.78 183.58 1683.71 174.52 1680.79 168.28 C 1678.33 163.11 1672.39 160.77 1666.97 160.58 C 1658.64 160.38 1650.32 160.56 1642.00 160.50 Z" />
<path fill="#0076bc" opacity="1.00" d=" M 1750.23 77.88 C 1760.11 77.29 1770.04 77.79 1779.95 77.63 C 1798.36 77.69 1816.78 77.49 1835.20 77.73 C 1835.28 87.24 1835.27 96.75 1835.20 106.26 C 1818.48 106.51 1801.75 106.32 1785.02 106.36 C 1784.97 115.28 1785.01 124.20 1785.00 133.12 C 1799.75 133.13 1814.50 133.10 1829.25 133.14 C 1829.55 142.37 1829.57 151.63 1829.24 160.87 C 1814.49 160.89 1799.75 160.87 1785.00 160.88 C 1784.99 170.59 1785.00 180.29 1785.00 190.00 C 1801.72 190.06 1818.44 189.89 1835.16 190.09 C 1835.24 199.63 1835.44 209.19 1835.06 218.73 C 1806.83 218.72 1778.59 218.86 1750.36 218.66 C 1750.09 171.74 1750.35 124.81 1750.23 77.88 Z" />
<path fill="#0076bc" opacity="1.00" d=" M 1870.24 77.87 C 1883.49 77.30 1896.78 77.78 1910.06 77.63 C 1921.68 77.85 1933.58 76.65 1944.92 79.88 C 1955.13 82.53 1964.66 88.57 1970.49 97.48 C 1980.11 112.33 1980.07 133.17 1969.76 147.67 C 1964.47 155.22 1956.32 160.29 1947.70 163.20 C 1958.07 181.55 1968.63 199.80 1978.89 218.23 C 1975.98 219.09 1972.94 218.70 1969.99 218.75 C 1960.00 218.75 1950.02 218.74 1940.04 218.76 C 1930.57 201.21 1921.14 183.64 1911.71 166.07 C 1909.46 166.06 1907.22 166.06 1905.00 166.06 C 1905.02 183.53 1904.94 201.00 1905.05 218.47 C 1893.51 219.07 1881.92 218.67 1870.37 218.67 C 1870.07 171.74 1870.35 124.80 1870.24 77.87 M 1905.01 107.37 C 1904.98 118.39 1905.00 129.41 1905.00 140.43 C 1913.00 140.26 1921.03 140.81 1929.01 140.12 C 1934.27 139.56 1939.42 136.29 1941.08 131.08 C 1942.93 125.18 1942.84 118.05 1938.99 112.94 C 1935.93 109.05 1930.81 107.62 1926.07 107.44 C 1919.05 107.27 1912.02 107.43 1905.01 107.37 Z" />
<path fill="#0076bc" opacity="1.00" d=" M 2003.90 77.75 C 2032.91 77.46 2061.92 77.71 2090.93 77.63 C 2097.55 77.72 2104.17 77.42 2110.79 77.81 C 2110.83 87.27 2110.82 96.73 2110.80 106.19 C 2098.76 106.64 2086.71 106.21 2074.67 106.41 C 2074.71 136.61 2074.68 166.81 2074.69 197.01 C 2074.55 204.15 2074.94 211.31 2074.51 218.44 C 2064.38 219.19 2054.13 218.51 2043.96 218.78 C 2042.61 218.53 2039.63 219.47 2040.02 217.12 C 2039.96 180.20 2040.04 143.28 2039.98 106.36 C 2027.95 106.31 2015.92 106.54 2003.90 106.24 C 2003.86 96.75 2003.85 87.25 2003.90 77.75 Z" />
<path fill="#0076bc" opacity="1.00" d=" M 2416.39 174.98 C 2416.67 142.52 2416.06 110.04 2416.69 77.60 C 2428.17 77.73 2439.66 77.46 2451.14 77.74 C 2451.24 109.82 2451.17 141.91 2451.18 173.99 C 2451.22 187.10 2447.18 201.07 2436.93 209.84 C 2425.78 219.49 2409.97 221.48 2395.83 219.44 C 2385.57 217.94 2375.55 213.31 2368.66 205.43 C 2361.24 197.14 2357.89 185.95 2357.36 175.01 C 2357.43 173.47 2356.41 170.22 2359.04 170.52 C 2369.94 170.60 2380.86 170.22 2391.75 170.73 C 2391.94 175.04 2392.20 179.65 2394.69 183.35 C 2398.01 188.49 2405.50 189.43 2410.68 186.76 C 2414.85 184.49 2416.21 179.39 2416.39 174.98 Z" />
<path fill="#0076bc" opacity="1.00" d=" M 2492.24 77.87 C 2503.79 77.40 2515.39 77.59 2526.96 77.77 C 2527.07 123.52 2526.94 169.26 2527.03 215.01 C 2526.70 216.12 2527.64 218.74 2525.82 218.69 C 2514.67 218.79 2503.51 218.81 2492.37 218.67 C 2492.08 171.74 2492.35 124.80 2492.24 77.87 Z" />
<path fill="#0076bc" opacity="1.00" d=" M 2564.25 77.85 C 2577.74 77.34 2591.26 77.76 2604.77 77.63 C 2617.37 109.36 2629.80 141.16 2642.51 172.85 C 2654.87 141.09 2667.34 109.36 2679.76 77.62 C 2693.17 77.70 2706.58 77.47 2719.99 77.74 C 2720.16 108.83 2720.01 139.92 2720.06 171.01 C 2719.93 186.91 2720.32 202.82 2719.86 218.72 C 2708.93 218.77 2698.00 218.77 2687.09 218.73 C 2684.75 219.15 2685.44 216.33 2685.35 215.01 C 2685.40 189.60 2685.37 164.19 2685.37 138.77 C 2675.54 165.40 2665.95 192.11 2656.20 218.76 C 2646.90 218.74 2637.60 218.76 2628.31 218.74 C 2618.68 192.09 2608.70 165.57 2599.28 138.85 C 2598.64 163.22 2599.16 187.62 2599.01 212.01 C 2598.74 214.16 2599.58 216.73 2598.46 218.62 C 2587.10 218.89 2575.72 218.76 2564.37 218.66 C 2564.09 171.73 2564.33 124.79 2564.25 77.85 Z" />
<path fill="#0076bc" opacity="1.00" d=" M 2757.24 77.87 C 2785.54 77.37 2813.88 77.65 2842.19 77.73 C 2842.28 87.24 2842.28 96.76 2842.19 106.27 C 2825.48 106.48 2808.76 106.37 2792.06 106.33 C 2791.93 115.26 2792.02 124.19 2792.00 133.12 C 2806.74 133.13 2821.49 133.11 2836.24 133.13 C 2836.56 142.36 2836.55 151.63 2836.25 160.86 C 2821.50 160.90 2806.75 160.87 2792.00 160.88 C 2791.99 170.59 2791.99 180.29 2792.00 190.00 C 2808.71 190.05 2825.43 189.90 2842.15 190.08 C 2842.25 199.63 2842.42 209.19 2842.06 218.73 C 2813.82 218.71 2785.57 218.89 2757.34 218.63 C 2757.12 171.71 2757.32 124.79 2757.24 77.87 Z" />
<path fill="#0076bc" opacity="1.00" d=" M 2877.23 77.88 C 2888.70 77.31 2900.20 77.76 2911.69 77.64 C 2929.75 105.82 2947.79 134.02 2965.93 162.16 C 2965.95 134.03 2965.92 105.90 2965.95 77.78 C 2977.52 77.59 2989.13 77.40 3000.70 77.87 C 3000.55 124.72 3000.94 171.60 3000.51 218.45 C 2989.14 219.17 2977.66 218.54 2966.27 218.75 C 2948.26 190.73 2930.09 162.81 2912.20 134.72 C 2911.59 162.71 2912.42 190.75 2911.78 218.74 C 2900.30 218.70 2888.82 218.88 2877.35 218.64 C 2877.11 171.72 2877.33 124.80 2877.23 77.88 Z" />
<path fill="#0076bc" opacity="1.00" d=" M 3038.24 77.85 C 3066.54 77.39 3094.88 77.64 3123.19 77.73 C 3123.28 87.24 3123.28 96.76 3123.19 106.27 C 3106.47 106.50 3089.74 106.32 3073.02 106.36 C 3072.97 115.28 3073.00 124.20 3073.00 133.12 C 3087.75 133.13 3102.49 133.11 3117.24 133.13 C 3117.56 142.37 3117.55 151.63 3117.25 160.86 C 3102.50 160.90 3087.75 160.87 3073.00 160.88 C 3072.99 170.59 3072.99 180.29 3073.00 190.00 C 3089.72 190.06 3106.44 189.89 3123.16 190.09 C 3123.24 199.63 3123.42 209.19 3123.07 218.72 C 3094.83 218.74 3066.60 218.84 3038.38 218.67 C 3038.07 171.74 3038.34 124.79 3038.24 77.85 Z" />
<path fill="#0076bc" opacity="1.00" d=" M 3156.01 77.74 C 3188.05 77.49 3220.10 77.66 3252.15 77.66 C 3254.16 77.33 3253.63 79.76 3253.77 80.98 C 3253.59 88.84 3254.02 96.72 3253.56 104.56 C 3234.50 132.93 3215.03 161.05 3195.86 189.37 C 3211.92 189.39 3227.97 189.37 3244.03 189.38 C 3247.27 189.42 3250.58 189.09 3253.81 189.78 C 3253.61 199.40 3253.91 209.03 3253.65 218.65 C 3221.14 218.86 3188.63 218.74 3156.13 218.71 C 3155.81 209.80 3155.84 200.86 3156.07 191.96 C 3174.91 163.48 3194.37 135.36 3213.43 107.00 C 3194.30 106.93 3175.18 107.14 3156.06 106.90 C 3155.83 97.18 3155.91 87.46 3156.01 77.74 Z" />
<path fill="#0076bc" opacity="1.00" d=" M 1182.40 182.61 C 1189.40 180.79 1197.47 182.10 1202.88 187.11 C 1209.26 192.89 1210.77 203.16 1206.50 210.60 C 1200.35 221.62 1183.80 223.41 1174.48 215.49 C 1168.84 210.82 1166.69 202.73 1168.75 195.78 C 1170.47 189.32 1175.97 184.23 1182.40 182.61 Z" />
<path fill="#0076bc" opacity="1.00" d=" M 1526.76 278.30 C 1536.81 273.19 1546.74 267.83 1556.87 262.85 C 1557.12 267.99 1556.92 273.14 1557.04 278.28 C 1547.03 282.91 1537.03 287.54 1526.94 291.98 C 1526.59 287.42 1526.78 282.86 1526.76 278.30 Z" />
<path fill="#0076bc" opacity="1.00" d=" M 3013.02 278.29 C 3023.08 273.19 3033.01 267.82 3043.15 262.85 C 3043.33 268.00 3043.20 273.16 3043.27 278.32 C 3033.24 282.90 3023.26 287.57 3013.18 291.99 C 3012.86 287.43 3013.00 282.86 3013.02 278.29 Z" />
<path fill="#0076bc" opacity="1.00" d=" M 948.99 310.96 C 963.04 293.30 990.57 289.86 1009.43 301.56 C 1017.68 306.72 1024.01 314.99 1026.61 324.40 C 1019.51 324.47 1012.42 324.45 1005.32 324.40 C 1002.83 319.54 998.83 315.28 993.61 313.40 C 984.19 309.95 972.55 311.97 965.63 319.48 C 959.82 325.76 957.82 334.70 958.35 343.05 C 958.74 350.18 961.28 357.41 966.46 362.48 C 973.67 369.51 985.19 371.20 994.38 367.42 C 999.32 365.42 1002.97 361.24 1005.36 356.58 C 1012.47 356.59 1019.59 356.45 1026.70 356.67 C 1023.46 367.68 1015.42 377.20 1004.94 381.94 C 990.84 388.33 973.55 387.74 960.19 379.80 C 950.71 374.22 943.69 364.79 940.78 354.21 C 936.71 339.60 939.28 322.85 948.99 310.96 Z" />
<path fill="#0076bc" opacity="1.00" d=" M 1182.09 295.25 C 1196.23 292.92 1211.55 297.03 1221.96 307.06 C 1238.74 322.73 1240.33 351.25 1226.24 369.16 C 1217.98 379.93 1204.55 386.19 1191.05 386.38 C 1177.35 386.81 1163.44 381.02 1154.60 370.45 C 1144.93 359.19 1141.82 343.13 1145.31 328.85 C 1149.22 311.49 1164.55 297.77 1182.09 295.25 M 1182.39 312.59 C 1173.45 314.65 1166.46 322.24 1164.42 331.08 C 1162.08 340.73 1163.10 351.76 1169.20 359.87 C 1178.60 372.38 1199.82 372.77 1209.80 360.77 C 1215.48 353.98 1217.11 344.64 1216.19 336.04 C 1215.47 328.93 1212.40 321.81 1206.75 317.25 C 1200.03 311.79 1190.63 310.55 1182.39 312.59 Z" />
<path fill="#0076bc" opacity="1.00" d=" M 1355.11 295.24 C 1370.87 292.59 1388.09 298.19 1398.34 310.67 C 1413.09 328.14 1412.14 356.72 1395.93 372.95 C 1382.18 387.15 1359.09 390.31 1341.63 381.45 C 1328.10 374.88 1318.69 360.99 1317.25 346.06 C 1315.33 330.68 1321.32 314.30 1333.66 304.67 C 1339.82 299.72 1347.31 296.50 1355.11 295.24 M 1355.43 312.58 C 1349.99 313.95 1344.98 317.15 1341.73 321.75 C 1337.30 327.86 1335.89 335.69 1336.36 343.11 C 1336.77 350.02 1339.17 357.02 1344.07 362.05 C 1354.06 372.23 1372.74 372.03 1382.30 361.35 C 1388.35 354.56 1390.14 344.93 1389.19 336.10 C 1388.48 328.96 1385.41 321.81 1379.73 317.24 C 1373.03 311.80 1363.65 310.55 1355.43 312.58 Z" />
<path fill="#0076bc" opacity="1.00" d=" M 1437.38 307.34 C 1451.52 293.48 1474.61 291.13 1492.05 299.83 C 1501.49 304.53 1508.51 313.33 1511.62 323.35 C 1504.52 323.83 1497.40 323.43 1490.30 323.57 C 1482.57 308.94 1459.84 308.66 1449.78 320.83 C 1444.18 327.46 1442.58 336.64 1443.53 345.07 C 1444.29 352.46 1447.71 359.84 1453.86 364.24 C 1461.85 369.88 1472.89 370.76 1481.83 366.95 C 1488.82 363.97 1493.22 357.07 1494.98 349.89 C 1484.87 349.86 1474.77 349.89 1464.68 349.88 C 1464.49 345.00 1464.50 340.12 1464.67 335.24 C 1480.97 335.29 1497.28 335.17 1513.58 335.30 C 1513.54 340.84 1513.86 346.40 1513.44 351.93 C 1510.49 366.44 1499.41 378.88 1485.42 383.67 C 1467.03 390.15 1444.32 384.49 1432.70 368.38 C 1419.52 350.48 1421.22 322.88 1437.38 307.34 Z" />
<path fill="#0076bc" opacity="1.00" d=" M 1679.90 301.81 C 1686.86 296.16 1696.17 294.35 1704.96 294.66 C 1713.16 294.93 1721.69 297.38 1727.70 303.24 C 1732.46 307.82 1734.94 314.36 1735.26 320.90 C 1728.46 320.99 1721.66 320.90 1714.86 320.96 C 1714.31 318.52 1713.79 315.91 1711.93 314.09 C 1707.97 310.04 1701.45 309.54 1696.33 311.36 C 1691.15 313.24 1689.17 320.37 1692.19 324.83 C 1694.78 328.30 1699.11 329.73 1703.04 331.12 C 1712.09 334.20 1722.10 335.99 1729.43 342.59 C 1737.84 350.22 1738.18 364.00 1732.19 373.20 C 1727.01 381.37 1717.34 385.63 1707.94 386.24 C 1697.59 387.00 1686.34 384.76 1678.57 377.48 C 1673.48 372.79 1670.99 365.87 1670.92 359.05 C 1677.56 358.95 1684.21 359.02 1690.87 359.00 C 1691.38 362.24 1692.27 365.74 1694.97 367.89 C 1699.50 371.47 1706.13 371.52 1711.27 369.27 C 1715.89 367.30 1718.07 361.43 1716.10 356.87 C 1714.57 353.42 1711.02 351.56 1707.71 350.22 C 1698.39 346.57 1687.91 345.39 1679.73 339.24 C 1667.91 330.55 1668.65 310.67 1679.90 301.81 Z" />
<path fill="#0076bc" opacity="1.00" d=" M 2459.17 295.23 C 2474.66 292.65 2491.56 298.01 2501.86 310.10 C 2515.32 325.54 2516.36 350.06 2504.89 366.90 C 2497.55 377.85 2485.04 384.91 2471.98 386.14 C 2457.49 387.74 2442.22 382.42 2432.47 371.45 C 2419.76 357.53 2417.47 335.66 2425.96 319.01 C 2432.31 306.30 2445.17 297.35 2459.17 295.23 M 2459.41 312.58 C 2453.99 313.96 2448.99 317.14 2445.76 321.72 C 2441.31 327.82 2439.89 335.65 2440.36 343.06 C 2440.77 350.21 2443.32 357.47 2448.55 362.52 C 2458.66 372.21 2476.86 371.86 2486.29 361.37 C 2492.36 354.56 2494.15 344.90 2493.19 336.04 C 2492.46 328.93 2489.40 321.81 2483.75 317.26 C 2477.04 311.79 2467.64 310.55 2459.41 312.58 Z" />
<path fill="#0076bc" opacity="1.00" d=" M 2844.25 313.26 C 2858.19 292.91 2889.29 288.93 2908.87 303.23 C 2915.97 308.37 2921.13 315.97 2923.71 324.33 C 2916.58 324.55 2909.45 324.41 2902.34 324.41 C 2899.83 319.56 2895.86 315.31 2890.66 313.42 C 2879.85 309.33 2866.04 312.86 2859.91 323.03 C 2853.65 333.47 2853.64 347.54 2859.87 358.00 C 2866.24 368.67 2881.05 372.18 2892.07 367.11 C 2896.67 365.03 2900.07 361.03 2902.33 356.60 C 2909.42 356.55 2916.52 356.52 2923.63 356.61 C 2920.59 367.66 2912.44 377.11 2902.05 381.89 C 2884.95 389.75 2862.88 387.12 2849.26 373.72 C 2833.33 358.30 2831.63 331.19 2844.25 313.26 Z" />
<path fill="#0076bc" opacity="1.00" d=" M 3021.18 295.23 C 3037.39 292.50 3055.14 298.59 3065.26 311.80 C 3079.06 329.36 3077.79 357.07 3061.93 372.95 C 3048.00 387.34 3024.49 390.38 3006.94 381.10 C 2992.80 373.95 2983.50 358.74 2983.00 342.97 C 2981.97 327.32 2989.33 311.23 3002.54 302.55 C 3008.10 298.77 3014.53 296.30 3021.18 295.23 M 3021.44 312.57 C 3015.50 314.05 3010.13 317.76 3006.90 322.97 C 3002.26 330.35 3001.41 339.60 3003.01 348.03 C 3004.43 355.77 3009.15 363.13 3016.36 366.64 C 3026.04 371.39 3038.80 370.31 3046.85 362.84 C 3052.79 357.28 3055.36 348.96 3055.43 340.99 C 3055.56 332.94 3053.24 324.44 3047.35 318.69 C 3040.67 312.08 3030.33 310.36 3021.44 312.57 Z" />
<path fill="#0076bc" opacity="1.00" d=" M 783.61 295.90 C 805.45 295.91 827.30 295.77 849.14 295.97 C 850.34 300.70 849.23 306.10 849.67 311.08 C 841.79 311.45 833.89 311.16 826.01 311.25 C 825.99 335.97 826.01 360.69 825.99 385.42 C 819.72 385.54 813.44 385.58 807.18 385.39 C 807.19 360.68 807.19 335.96 807.18 311.25 C 799.31 311.22 791.45 311.31 783.59 311.20 C 783.55 306.10 783.52 301.00 783.61 295.90 Z" />
<path fill="#0076bc" opacity="1.00" d=" M 868.26 295.83 C 885.75 295.74 903.26 295.62 920.76 295.89 C 920.74 300.97 920.75 306.05 920.75 311.14 C 909.52 311.39 898.29 311.18 887.07 311.25 C 887.05 318.31 887.06 325.37 887.06 332.43 C 896.98 332.44 906.90 332.43 916.82 332.44 C 917.02 337.47 916.99 342.51 916.83 347.55 C 906.91 347.59 896.98 347.55 887.06 347.57 C 887.06 355.04 887.06 362.52 887.06 370.00 C 898.28 370.07 909.51 369.87 920.73 370.10 C 920.77 375.19 920.72 380.28 920.78 385.37 C 903.27 385.59 885.74 385.57 868.23 385.38 C 868.27 355.53 868.23 325.68 868.26 295.83 Z" />
<path fill="#0076bc" opacity="1.00" d=" M 1048.24 295.85 C 1054.44 295.64 1060.64 295.79 1066.85 295.76 C 1079.99 315.60 1093.02 335.53 1106.27 355.30 C 1106.34 335.51 1106.34 315.71 1106.27 295.91 C 1112.54 295.59 1118.82 295.77 1125.10 295.81 C 1125.14 325.69 1125.14 355.57 1125.10 385.45 C 1118.83 385.50 1112.56 385.61 1106.30 385.38 C 1093.40 365.46 1080.13 345.77 1067.06 325.96 C 1067.05 345.78 1067.08 365.61 1067.05 385.43 C 1060.76 385.49 1054.47 385.66 1048.20 385.33 C 1048.31 355.51 1048.23 325.68 1048.24 295.85 Z" />
<path fill="#0076bc" opacity="1.00" d=" M 1255.26 295.96 C 1261.50 295.79 1267.75 295.89 1273.99 295.90 C 1274.15 320.72 1274.01 345.55 1274.06 370.37 C 1283.64 370.45 1293.22 370.24 1302.79 370.46 C 1303.87 375.20 1302.97 380.51 1303.21 385.47 C 1287.21 385.44 1271.20 385.68 1255.21 385.35 C 1255.31 355.56 1255.20 325.76 1255.26 295.96 Z" />
<path fill="#0076bc" opacity="1.00" d=" M 1533.27 295.95 C 1539.51 295.81 1545.75 295.88 1551.99 295.90 C 1552.14 325.74 1552.03 355.59 1552.05 385.43 C 1545.94 385.49 1539.83 385.62 1533.73 385.42 C 1532.64 383.27 1533.48 380.41 1533.24 377.99 C 1533.27 350.64 1533.21 323.29 1533.27 295.95 Z" />
<path fill="#0076bc" opacity="1.00" d=" M 1569.71 385.42 C 1580.21 355.46 1591.14 325.65 1601.82 295.75 C 1608.96 295.75 1616.10 295.75 1623.25 295.75 C 1633.92 325.65 1644.89 355.46 1655.34 385.43 C 1648.76 385.58 1642.18 385.46 1635.60 385.51 C 1633.63 379.89 1631.69 374.27 1629.76 368.64 C 1618.24 368.61 1606.71 368.62 1595.19 368.64 C 1593.24 374.26 1591.30 379.89 1589.35 385.51 C 1582.79 385.46 1576.25 385.59 1569.71 385.42 M 1600.39 353.37 C 1608.44 353.37 1616.49 353.38 1624.55 353.37 C 1620.55 341.79 1616.55 330.22 1612.54 318.65 C 1608.25 330.13 1604.47 341.81 1600.39 353.37 Z" />
<path fill="#0076bc" opacity="1.00" d=" M 1795.25 296.00 C 1805.82 295.73 1816.40 295.93 1826.99 295.89 C 1838.31 295.89 1850.01 298.90 1858.89 306.19 C 1867.03 312.74 1872.06 322.65 1873.46 332.93 C 1875.10 344.72 1873.22 357.44 1866.28 367.34 C 1860.40 375.89 1850.98 381.57 1840.97 383.90 C 1832.15 386.15 1822.99 385.36 1814.00 385.50 C 1807.73 385.42 1801.46 385.68 1795.20 385.34 C 1795.30 355.56 1795.22 325.78 1795.25 296.00 M 1814.06 311.88 C 1814.06 331.04 1814.06 350.21 1814.06 369.37 C 1824.02 369.22 1834.97 370.60 1843.74 364.79 C 1852.01 359.62 1855.10 349.25 1854.79 339.96 C 1854.76 330.81 1851.18 320.89 1842.93 316.09 C 1834.28 310.74 1823.74 312.03 1814.06 311.88 Z" />
<path fill="#0076bc" opacity="1.00" d=" M 1894.24 295.85 C 1911.74 295.70 1929.26 295.64 1946.76 295.88 C 1946.74 300.96 1946.74 306.04 1946.76 311.12 C 1935.53 311.41 1924.29 311.18 1913.07 311.25 C 1913.05 318.31 1913.06 325.37 1913.06 332.43 C 1922.98 332.45 1932.90 332.42 1942.83 332.45 C 1943.01 337.48 1942.99 342.51 1942.84 347.54 C 1932.91 347.59 1922.98 347.55 1913.06 347.57 C 1913.05 355.04 1913.06 362.52 1913.06 370.00 C 1924.28 370.06 1935.50 369.88 1946.72 370.09 C 1946.78 375.17 1946.69 380.25 1946.81 385.32 C 1929.28 385.63 1911.73 385.60 1894.20 385.34 C 1894.31 355.51 1894.23 325.68 1894.24 295.85 Z" />
<path fill="#0076bc" opacity="1.00" d=" M 2006.27 295.96 C 2012.50 295.80 2018.75 295.88 2025.01 295.90 C 2025.13 320.73 2025.02 345.55 2025.06 370.37 C 2034.74 370.36 2044.42 370.41 2054.10 370.34 C 2054.37 375.38 2054.23 380.43 2054.20 385.47 C 2038.21 385.47 2022.22 385.63 2006.24 385.39 C 2006.27 355.58 2006.22 325.77 2006.27 295.96 Z" />
<path fill="#0076bc" opacity="1.00" d=" M 2066.69 385.40 C 2077.23 355.46 2088.13 325.64 2098.82 295.75 C 2105.95 295.75 2113.10 295.75 2120.25 295.75 C 2130.94 325.64 2141.84 355.46 2152.37 385.41 C 2145.77 385.60 2139.18 385.45 2132.59 385.50 C 2130.63 379.88 2128.69 374.26 2126.75 368.64 C 2115.23 368.62 2103.71 368.62 2092.19 368.63 C 2090.24 374.26 2088.30 379.88 2086.35 385.50 C 2079.79 385.45 2073.24 385.61 2066.69 385.40 M 2097.39 353.37 C 2105.44 353.37 2113.49 353.38 2121.55 353.37 C 2117.56 341.81 2113.55 330.26 2109.56 318.70 C 2105.19 330.14 2101.48 341.83 2097.39 353.37 Z" />
<path fill="#0076bc" opacity="1.00" d=" M 2207.28 295.93 C 2213.53 295.83 2219.78 295.87 2226.05 295.91 C 2226.07 325.75 2226.06 355.59 2226.05 385.43 C 2219.76 385.50 2213.47 385.64 2207.21 385.35 C 2207.32 355.54 2207.18 325.74 2207.28 295.93 Z" />
<path fill="#0076bc" opacity="1.00" d=" M 2250.26 295.83 C 2256.44 295.67 2262.64 295.78 2268.85 295.76 C 2282.00 315.56 2294.94 335.51 2308.26 355.21 C 2308.36 335.43 2308.31 315.66 2308.29 295.89 C 2314.54 295.63 2320.82 295.75 2327.10 295.81 C 2327.14 325.69 2327.13 355.57 2327.10 385.45 C 2320.95 385.58 2314.79 385.41 2308.65 385.57 C 2295.31 365.80 2282.29 345.80 2269.06 325.95 C 2269.05 345.78 2269.07 365.61 2269.05 385.43 C 2262.77 385.51 2256.48 385.62 2250.22 385.36 C 2250.29 355.52 2250.22 325.67 2250.26 295.83 Z" />
<path fill="#0076bc" opacity="1.00" d=" M 2350.26 295.96 C 2368.82 295.78 2387.39 295.89 2405.95 295.91 C 2406.02 301.00 2405.99 306.09 2405.98 311.19 C 2393.67 311.33 2381.37 311.22 2369.07 311.25 C 2369.05 318.48 2369.05 325.71 2369.06 332.94 C 2378.47 332.94 2387.89 332.93 2397.31 332.95 C 2397.40 337.98 2397.40 343.02 2397.31 348.05 C 2387.89 348.07 2378.47 348.05 2369.06 348.06 C 2369.05 360.52 2369.07 372.98 2369.05 385.43 C 2362.83 385.59 2356.61 385.43 2350.41 385.54 C 2350.04 355.69 2350.34 325.82 2350.26 295.96 Z" />
<path fill="#0076bc" opacity="1.00" d=" M 2532.27 295.95 C 2543.50 295.79 2554.75 295.90 2566.00 295.89 C 2576.84 295.76 2588.90 299.59 2594.73 309.39 C 2599.83 317.87 2599.87 329.23 2594.72 337.70 C 2591.23 343.61 2585.13 347.47 2578.69 349.46 C 2585.62 361.47 2593.06 373.21 2599.66 385.41 C 2592.49 385.60 2585.32 385.46 2578.16 385.50 C 2571.69 374.01 2565.10 362.59 2558.71 351.06 C 2556.14 351.00 2553.59 350.98 2551.06 351.00 C 2551.05 362.48 2551.07 373.95 2551.05 385.43 C 2544.76 385.50 2538.48 385.63 2532.21 385.35 C 2532.31 355.55 2532.20 325.75 2532.27 295.95 M 2551.06 311.63 C 2551.06 319.96 2551.04 328.30 2551.07 336.63 C 2556.74 336.52 2562.43 336.84 2568.11 336.45 C 2572.25 336.12 2576.58 333.93 2578.15 329.86 C 2580.62 323.85 2579.16 314.99 2572.26 312.74 C 2565.39 310.71 2558.10 311.97 2551.06 311.63 Z" />
<path fill="#0076bc" opacity="1.00" d=" M 2620.27 295.95 C 2627.26 295.78 2634.25 295.94 2641.26 295.85 C 2650.71 317.43 2659.61 339.26 2669.26 360.76 C 2678.46 339.11 2687.76 317.51 2697.00 295.88 C 2703.96 295.89 2710.92 295.84 2717.89 295.91 C 2717.99 325.74 2717.92 355.58 2717.93 385.42 C 2711.65 385.55 2705.38 385.57 2699.12 385.40 C 2699.10 367.02 2699.17 348.63 2699.09 330.25 C 2691.36 348.62 2683.89 367.10 2676.24 385.50 C 2671.50 385.50 2666.78 385.50 2662.06 385.50 C 2654.40 367.02 2646.74 348.53 2639.08 330.05 C 2639.02 348.51 2639.08 366.97 2639.05 385.43 C 2632.76 385.49 2626.47 385.66 2620.20 385.33 C 2620.33 355.54 2620.19 325.74 2620.27 295.95 Z" />
<path fill="#0076bc" opacity="1.00" d=" M 2736.70 385.42 C 2747.21 355.46 2758.14 325.65 2768.82 295.75 C 2775.95 295.75 2783.10 295.75 2790.25 295.75 C 2800.91 325.66 2811.90 355.45 2822.33 385.44 C 2815.75 385.57 2809.17 385.46 2802.60 385.51 C 2800.63 379.89 2798.68 374.27 2796.76 368.64 C 2785.23 368.61 2773.71 368.62 2762.19 368.64 C 2760.24 374.26 2758.30 379.88 2756.35 385.50 C 2749.79 385.46 2743.24 385.59 2736.70 385.42 M 2767.39 353.37 C 2775.44 353.37 2783.49 353.38 2791.55 353.37 C 2787.55 341.75 2783.50 330.15 2779.52 318.53 C 2775.34 330.10 2771.44 341.76 2767.39 353.37 Z" />
<path fill="#0076bc" opacity="1.00" d=" M 2945.25 296.00 C 2951.48 295.75 2957.73 295.91 2963.99 295.90 C 2964.14 325.74 2964.03 355.59 2964.05 385.43 C 2957.77 385.51 2951.48 385.61 2945.22 385.37 C 2945.28 355.58 2945.23 325.79 2945.25 296.00 Z" />
<path fill="#0076bc" opacity="1.00" d=" M 3094.26 295.83 C 3100.44 295.67 3106.63 295.78 3112.84 295.75 C 3125.99 315.59 3139.02 335.52 3152.27 355.30 C 3152.33 335.51 3152.34 315.72 3152.27 295.93 C 3158.53 295.58 3164.81 295.77 3171.10 295.81 C 3171.14 325.69 3171.13 355.57 3171.10 385.45 C 3164.84 385.51 3158.59 385.58 3152.35 385.41 C 3139.39 365.50 3126.14 345.78 3113.07 325.95 C 3113.04 345.78 3113.07 365.61 3113.05 385.43 C 3106.76 385.49 3100.47 385.65 3094.20 385.34 C 3094.32 355.50 3094.20 325.66 3094.26 295.83 Z" />
</g>
<g id="#eed52bff">
<path fill="#eed52b" opacity="1.00" d=" M 491.00 69.49 C 506.36 52.61 521.85 35.85 537.25 19.00 C 590.72 75.46 644.22 131.90 697.71 188.35 C 702.86 193.96 708.29 199.32 713.30 205.06 C 698.04 222.05 682.30 238.61 666.82 255.40 C 652.05 238.95 636.45 223.26 621.40 207.06 C 577.88 161.26 534.53 115.29 491.00 69.49 Z" />
</g>
<g id="#e34b21ff">
<path fill="#e34b21" opacity="1.00" d=" M 172.48 23.02 C 187.33 38.94 202.17 54.86 216.99 70.81 C 174.89 116.02 132.76 161.19 90.70 206.44 C 75.47 223.03 59.75 239.17 44.78 256.00 C 42.51 254.01 40.44 251.81 38.42 249.58 C 25.71 235.82 12.70 222.35 0.00 208.58 L 0.00 208.19 C 17.35 189.46 34.49 170.52 52.22 152.16 C 92.30 109.10 132.40 66.07 172.48 23.02 Z" />
</g>
<g id="#f06426ff">
<path fill="#f06426" opacity="1.00" d=" M 44.78 256.00 C 59.75 239.17 75.47 223.03 90.70 206.44 C 133.47 251.43 176.26 296.40 218.98 341.43 C 203.76 357.93 188.58 374.47 173.36 390.98 C 143.42 359.47 113.47 327.97 83.52 296.46 C 70.56 283.02 57.98 269.20 44.78 256.00 Z" />
</g>
<g id="#efda4dff">
<path fill="#efda4d" opacity="1.00" d=" M 492.99 345.39 C 535.80 299.29 578.60 253.18 621.40 207.06 C 636.45 223.26 652.05 238.95 666.82 255.40 C 623.87 301.56 581.02 347.81 538.12 394.01 C 523.07 377.81 508.02 361.61 492.99 345.39 Z" />
</g>
</svg>
